<svg xmlns="http://www.w3.org/2000/svg" xmlns:xlink="http://www.w3.org/1999/xlink" width="155.123" height="24.708" viewBox="0 0 155.123 24.708">
  <defs>
    <clipPath id="clip-path">
      <rect id="Rechteck_3" data-name="Rechteck 3" width="155.123" height="24.708" fill="#45cb53"/>
    </clipPath>
  </defs>
  <g id="Gruppe_6" data-name="Gruppe 6" style="isolation: isolate">
    <g id="Gruppe_3" data-name="Gruppe 3" clip-path="url(#clip-path)">
      <path id="Pfad_6" data-name="Pfad 6" d="M4.545,33.509a3.562,3.562,0,0,0,1.892.018,2.916,2.916,0,0,0-1.892-.018" transform="translate(-0.797 -8.941)" fill="#45cb53"/>
      <path id="Pfad_7" data-name="Pfad 7" d="M6.855,33.592l.008-.007-.024,0Z" transform="translate(-1.199 -9.001)" fill="#45cb53"/>
      <path id="Pfad_8" data-name="Pfad 8" d="M187.255.778l-.647.015a3.181,3.181,0,0,0,.647-.015" transform="translate(-32.704 -0.209)" fill="#45cb53"/>
      <path id="Pfad_9" data-name="Pfad 9" d="M41.883,20.528l.047-.593c1.806-.181.6.616,2.256.313.558-.9,2.788-.163,3.321-.64-.007.066.818.027.793.289.2-.467.834-.17,1.34-.324.176-.139-.151-.124-.306-.247l1.172-.251c.479.108.619.362.12.451,3.108-.141,18.077-.66,21.431-1-.454-.32-1.477-.043-1.908-.559.871-.339,1.317.045,1.69-.286.392.777,1.968.1,2.69.873l.228-.46.459.255c3.885-.646.881-.269,4.355-.321,2-.155,2.925-.838,4.057-.638-.167,0-.624-.261-.108-.392.107.392,1.376-.325,1.649.066.508-.065,2.166-.064,1.582-.587.294.261,1.775.326.906.587A4.358,4.358,0,0,0,88.995,17l-.646-.131c1.68-.13,2.613.261,3.691-.261l-.63-.2c1-.065,1.846-.131,2.259.391l-1.027.2a18.935,18.935,0,0,0,4.054-.456h-.5c1.749-.625,11.033-1.164,12.66-1.872l-.762-.4,1.4-.371c-.167,0-.656,1.356-.8,1.223,1.508-.029,6.181-.244,10.838-.272,4.653-.057,9.279-.075,10.674.062,1.125.228.2.658.187.723,1.369-.157.592-.44,1.756-.406.318.074-.067.325-.246.384.511-.05.982.093,1.023-.1-.638-.149-.365-.664-.633-1l1.5.042-.068.325c.333.007.853-.886,2.325-.693,2.484.171,5.184.089,7.682.194-.041.194-.567.3-1.1.411a3.4,3.4,0,0,1,1.153.114c-.6-.351,1.052-.217.582-.367,1.843-.772,4.2-.019,5.825-.538.146-.712,3.726-12.218,3.755-13.066a5.131,5.131,0,0,1,1.164.114,2.6,2.6,0,0,0-1.654-.2l-.1.454c-1.221.145-.28-.273-1.47-.257-.056-.373,1.041-.439,2.007-.463-.868-.053-1.727-.335-2.089.068-.813-.165.1-.454-.881-.625a5.913,5.913,0,0,1-2.43.225l.015-.065c-1.95-.408-3,.529-4.783.127l.195-.122c-.629-.223-1.877.052-3.014-.192.324.079.6.352-.083.388-1.308-.25-2.2-.026-3.16-.327l-.922.354c-2.279-.094-7.933.069-13.584.193l-8.058.2-5.542.2.179-.061c-3.5.161-8.827.233-14.193.464-5.366.247-10.758.507-14.36.9a18.984,18.984,0,0,0-3.848-.2c.657.12.449.384-.059.392-3.556.121-.226.259-3.81.575-1.029.13-2.793.25-4.915.353-2.124.119-4.608.258-7.08.36l-7.005.258c-2.074.088-3.763.138-4.69.134-1.922.685-4.428.466-6.327.968l.181-.143c-1.028.2-4.5.456-8.011.717s-7.078.638-8.272.856l.336.038c-2.059.567-1.858-.05-3.553,0,.312.559-1.441,1.132-2.121,1.267l0-.132C21,8,18.742,8.783,17.042,9.144l.007-.331a32.111,32.111,0,0,1-5.1,1.032c-1.192.138-2.729.228-4.354.4A23.189,23.189,0,0,0,2.68,11.315C1.894,11.173,1.139,11.007.3,10.9l-.3.168s-.014.727.069,1.831a23.33,23.33,0,0,0,.6,4.117,18.656,18.656,0,0,0,1.642,4.309,4.909,4.909,0,0,0,2.5,2.621l.039.326.71-.2c.915-.035,1.218-.489,1.244-.162l-1.2.223c.9-.1.336.2.055.45a4.638,4.638,0,0,1,1.051-.055c.138-.159-.162-.1-.317-.142a3.452,3.452,0,0,1,1.653-.621c.934-.152.19.5,1.275.324,5.771-.848,11.573-1.317,17.565-2.159.158.115-.006.132-.169.214,1.78-.389,3.421-.491,5.055-.833a1.487,1.487,0,0,1,.791.393,22.425,22.425,0,0,1,4.468-.732l3.276-.329c.908-.083,1.531-.131,1.57-.117" transform="translate(0 0)" fill="#45cb53"/>
    </g>
  </g>
</svg>