<?xml version="1.0" encoding="UTF-8"?>
<svg id="Ebene_2" data-name="Ebene 2" xmlns="http://www.w3.org/2000/svg" viewBox="0 0 1924.67 545.44">
  <defs>
    <style>
      .cls-1 {
        opacity: .4;
      }

      .cls-2 {
        fill: #ccc;
      }

      .cls-2, .cls-3, .cls-4, .cls-5, .cls-6, .cls-7, .cls-8, .cls-9, .cls-10, .cls-11, .cls-12, .cls-13, .cls-14, .cls-15, .cls-16, .cls-17, .cls-18, .cls-19, .cls-20, .cls-21, .cls-22, .cls-23, .cls-24, .cls-25, .cls-26, .cls-27, .cls-28, .cls-29, .cls-30, .cls-31, .cls-32, .cls-33, .cls-34, .cls-35, .cls-36, .cls-37, .cls-38, .cls-39, .cls-40, .cls-41, .cls-42, .cls-43, .cls-44, .cls-45, .cls-46, .cls-47, .cls-48, .cls-49, .cls-50, .cls-51, .cls-52, .cls-53, .cls-54, .cls-55, .cls-56, .cls-57, .cls-58, .cls-59, .cls-60, .cls-61, .cls-62, .cls-63, .cls-64, .cls-65 {
        stroke-width: 0px;
      }

      .cls-66 {
        opacity: .43;
      }

      .cls-67 {
        opacity: .49;
      }

      .cls-68 {
        opacity: .41;
      }

      .cls-69 {
        opacity: .39;
      }

      .cls-70 {
        opacity: .36;
      }

      .cls-71 {
        opacity: .42;
      }

      .cls-3 {
        fill: #d3d3d3;
      }

      .cls-4 {
        fill: #eee;
      }

      .cls-72 {
        opacity: .4;
      }

      .cls-73 {
        opacity: .37;
      }

      .cls-74 {
        opacity: .5;
      }

      .cls-5 {
        fill: #eaeaea;
      }

      .cls-75 {
        opacity: .41;
      }

      .cls-76 {
        opacity: .44;
      }

      .cls-77 {
        opacity: .49;
      }

      .cls-6 {
        fill: #bdbdbd;
      }

      .cls-7 {
        fill: #bbb;
      }

      .cls-8 {
        fill: #c8c8c8;
      }

      .cls-9 {
        fill: #e0e0e0;
      }

      .cls-78 {
        opacity: .37;
      }

      .cls-79 {
        opacity: .45;
      }

      .cls-80 {
        opacity: .42;
      }

      .cls-10 {
        fill: #f2f2f2;
      }

      .cls-81 {
        opacity: .39;
      }

      .cls-82 {
        opacity: .44;
      }

      .cls-83 {
        opacity: .51;
      }

      .cls-84 {
        opacity: .38;
      }

      .cls-85 {
        opacity: .41;
      }

      .cls-86 {
        opacity: .4;
      }

      .cls-87 {
        opacity: .42;
      }

      .cls-88 {
        opacity: .45;
      }

      .cls-89 {
        opacity: .42;
      }

      .cls-11 {
        fill: #dcdcdc;
      }

      .cls-12 {
        fill: #d0d0d0;
      }

      .cls-13 {
        fill: #b9b9b9;
      }

      .cls-90 {
        opacity: .44;
      }

      .cls-14 {
        fill: #c4c4c4;
      }

      .cls-91 {
        opacity: .37;
      }

      .cls-92 {
        opacity: .46;
      }

      .cls-93 {
        opacity: .36;
      }

      .cls-94 {
        opacity: .46;
      }

      .cls-95 {
        opacity: .48;
      }

      .cls-15 {
        fill: #b4b4b4;
      }

      .cls-96 {
        opacity: .46;
      }

      .cls-16 {
        fill: #bababa;
      }

      .cls-97 {
        opacity: .47;
      }

      .cls-17 {
        fill: #cdcdcd;
      }

      .cls-18 {
        fill: silver;
      }

      .cls-19 {
        fill: #cacaca;
      }

      .cls-20 {
        fill: #b7b7b7;
      }

      .cls-98 {
        opacity: .43;
      }

      .cls-21 {
        fill: #d4d4d4;
      }

      .cls-99 {
        opacity: .35;
      }

      .cls-22 {
        fill: #b3b3b3;
      }

      .cls-100 {
        opacity: .38;
      }

      .cls-101 {
        opacity: .46;
      }

      .cls-23 {
        fill: #d9d9d9;
      }

      .cls-102 {
        opacity: .38;
      }

      .cls-103 {
        opacity: .46;
      }

      .cls-104 {
        opacity: .49;
      }

      .cls-24 {
        fill: #dbdbdb;
      }

      .cls-105 {
        opacity: .35;
      }

      .cls-25 {
        fill: #ebebeb;
      }

      .cls-106 {
        opacity: .44;
      }

      .cls-107 {
        opacity: .45;
      }

      .cls-108 {
        opacity: .35;
      }

      .cls-26 {
        fill: #e5e5e5;
      }

      .cls-109 {
        opacity: .49;
      }

      .cls-27 {
        fill: #cecece;
      }

      .cls-28 {
        fill: #d6d6d6;
      }

      .cls-29 {
        fill: #c3c3c3;
      }

      .cls-110 {
        opacity: .48;
      }

      .cls-111 {
        opacity: .41;
      }

      .cls-112 {
        opacity: .4;
      }

      .cls-113 {
        opacity: .47;
      }

      .cls-114 {
        opacity: .39;
      }

      .cls-30 {
        fill: #e3e3e3;
      }

      .cls-115 {
        opacity: .45;
      }

      .cls-116 {
        opacity: .36;
      }

      .cls-117 {
        opacity: .47;
      }

      .cls-118 {
        opacity: .38;
      }

      .cls-119 {
        opacity: .36;
      }

      .cls-31 {
        fill: #e6e6e6;
      }

      .cls-120 {
        opacity: .39;
      }

      .cls-121 {
        opacity: .51;
      }

      .cls-32 {
        fill: #ddd;
      }

      .cls-122 {
        opacity: .36;
      }

      .cls-123 {
        opacity: .44;
      }

      .cls-124 {
        opacity: .4;
      }

      .cls-33 {
        fill: #e8e8e8;
      }

      .cls-125 {
        opacity: .4;
      }

      .cls-126 {
        opacity: .43;
      }

      .cls-127 {
        opacity: .49;
      }

      .cls-34 {
        fill: #e7e7e7;
      }

      .cls-128 {
        opacity: .36;
      }

      .cls-35 {
        fill: #bcbcbc;
      }

      .cls-129 {
        opacity: .39;
      }

      .cls-130 {
        opacity: .43;
      }

      .cls-131 {
        opacity: .39;
      }

      .cls-36 {
        fill: #dedede;
      }

      .cls-37 {
        fill: #e1e1e1;
      }

      .cls-132 {
        opacity: .35;
      }

      .cls-133 {
        opacity: .37;
      }

      .cls-38 {
        fill: #e2e2e2;
      }

      .cls-134 {
        opacity: .42;
      }

      .cls-135 {
        opacity: .41;
      }

      .cls-39 {
        fill: #d5d5d5;
      }

      .cls-136 {
        opacity: .48;
      }

      .cls-137 {
        opacity: .4;
      }

      .cls-138 {
        opacity: .42;
      }

      .cls-139 {
        opacity: .39;
      }

      .cls-140 {
        opacity: .41;
      }

      .cls-141 {
        opacity: .49;
      }

      .cls-40 {
        fill: #c6c6c6;
      }

      .cls-142 {
        opacity: .48;
      }

      .cls-143 {
        opacity: .45;
      }

      .cls-41 {
        fill: #b5b5b5;
      }

      .cls-42 {
        fill: #d7d7d7;
      }

      .cls-43 {
        fill: #cfcfcf;
      }

      .cls-44 {
        fill: #c7c7c7;
      }

      .cls-144 {
        opacity: .37;
      }

      .cls-145 {
        opacity: .47;
      }

      .cls-146 {
        opacity: .37;
      }

      .cls-45 {
        fill: #f1f1f1;
      }

      .cls-46 {
        fill: #efefef;
      }

      .cls-47 {
        fill: #bebebe;
      }

      .cls-147 {
        opacity: .45;
      }

      .cls-148 {
        opacity: .48;
      }

      .cls-149 {
        opacity: .38;
      }

      .cls-150 {
        opacity: .45;
      }

      .cls-48 {
        fill: #ededed;
      }

      .cls-49 {
        fill: #b8b8b8;
      }

      .cls-151 {
        opacity: .51;
      }

      .cls-152 {
        opacity: .46;
      }

      .cls-50 {
        fill: #dfdfdf;
      }

      .cls-153 {
        opacity: .5;
      }

      .cls-51 {
        fill: #c1c1c1;
      }

      .cls-52 {
        fill: #bfbfbf;
      }

      .cls-154 {
        opacity: .46;
      }

      .cls-155 {
        opacity: .44;
      }

      .cls-156 {
        opacity: .43;
      }

      .cls-157 {
        opacity: .49;
      }

      .cls-158 {
        opacity: .42;
      }

      .cls-159 {
        opacity: .44;
      }

      .cls-53 {
        fill: #dadada;
      }

      .cls-54 {
        fill: #b6b6b6;
      }

      .cls-55 {
        fill: #e4e4e4;
      }

      .cls-56 {
        fill: #d2d2d2;
      }

      .cls-160 {
        opacity: .5;
      }

      .cls-57 {
        fill: #ececec;
      }

      .cls-161 {
        opacity: .47;
      }

      .cls-162 {
        opacity: .38;
      }

      .cls-58 {
        fill: #c5c5c5;
      }

      .cls-163 {
        opacity: .48;
      }

      .cls-59 {
        fill: #c2c2c2;
      }

      .cls-164 {
        opacity: .43;
      }

      .cls-165 {
        opacity: .37;
      }

      .cls-166 {
        opacity: .47;
      }

      .cls-60 {
        fill: #cbcbcb;
      }

      .cls-61 {
        fill: #f0f0f0;
      }

      .cls-167 {
        opacity: .36;
      }

      .cls-168 {
        opacity: .38;
      }

      .cls-169 {
        opacity: .48;
      }

      .cls-62 {
        fill: #d1d1d1;
      }

      .cls-170 {
        opacity: .5;
      }

      .cls-63 {
        fill: #e9e9e9;
      }

      .cls-64 {
        fill: #c9c9c9;
      }

      .cls-171 {
        opacity: .41;
      }

      .cls-172 {
        opacity: .5;
      }

      .cls-173 {
        opacity: .5;
      }

      .cls-174 {
        opacity: .51;
      }

      .cls-175 {
        opacity: .47;
      }

      .cls-65 {
        fill: #d8d8d8;
      }

      .cls-176 {
        opacity: .5;
      }
    </style>
  </defs>
  <g id="Ebene_1-2" data-name="Ebene 1">
    <g>
      <g class="cls-83">
        <path class="cls-22" d="M5.82,545.44l-5.82-3.89c.22-.34,22.65-34.15,38.93-77.54,14.87-39.63,27.54-95.61,3.45-137.27-27.24-47.1,7.44-73.08,47.6-103.16,35.14-26.32,74.96-56.14,89.05-107.52,5.93-21.6,2.95-40.41-8.84-55.92C130.48,7.93,4.17,7,2.9,7l.02-7c.33,0,32.95.16,70.19,6.99,50.47,9.26,85.01,25.72,102.66,48.93,13.18,17.33,16.55,38.19,10.02,62.01-14.73,53.69-55.57,84.28-91.61,111.27-40.56,30.38-69.87,52.33-45.74,94.05,11.31,19.55,16.04,43.49,14.07,71.16-1.56,21.9-7.3,46.19-17.07,72.2-16.58,44.12-39.39,78.5-39.62,78.84Z"/>
      </g>
      <g class="cls-121">
        <path class="cls-15" d="M23.11,545.41l-5.79-3.86c.22-.33,22.43-33.85,38.41-76.95,14.6-39.36,26.86-95.04,2.4-136.71-27.38-46.82,7.08-72.74,46.98-102.74,35.36-26.59,75.43-56.72,89.41-109.05,5.78-21.63,2.69-40.47-9.17-56C145.71,8.21,21.44,6.98,20.19,6.98l.03-6.96c.32,0,32.42.23,69.14,7.1,49.75,9.3,83.9,25.71,101.52,48.75,13.25,17.33,16.73,38.2,10.37,62.02-14.6,54.64-57.49,86.89-91.95,112.81-40.3,30.3-69.41,52.2-45.16,93.67,11.47,19.54,16.39,43.42,14.63,70.96-1.4,21.81-6.97,45.97-16.56,71.81-16.27,43.83-38.87,77.93-39.1,78.26Z"/>
      </g>
      <g class="cls-174">
        <path class="cls-15" d="M40.4,545.38l-5.75-3.83c.22-.33,22.21-33.55,37.88-76.37,14.32-39.1,26.18-94.46,1.36-136.15-27.51-46.54,6.73-72.39,46.37-102.32,35.57-26.86,75.9-57.3,89.76-110.58,5.63-21.65,2.44-40.52-9.5-56.08C160.96,8.48,38.71,6.96,37.48,6.96l.05-6.91c.31,0,31.9.31,68.1,7.21,49.04,9.35,82.81,25.69,100.37,48.59,13.3,17.34,16.91,38.21,10.71,62.03-14.47,55.6-57.61,88.18-92.28,114.35-40.03,30.22-68.96,52.06-44.59,93.28,11.63,19.53,16.74,43.34,15.18,70.76-1.23,21.72-6.63,45.75-16.04,71.42-15.97,43.55-38.35,77.36-38.58,77.69Z"/>
      </g>
      <g class="cls-151">
        <path class="cls-41" d="M57.69,545.35l-5.72-3.8c.22-.33,21.94-33.23,37.29-75.74,14.02-38.83,25.47-93.88.38-135.65-27.75-46.2,6.29-71.99,45.71-101.85,35.82-27.14,76.43-57.91,90.17-112.15,5.49-21.67,2.19-40.56-9.82-56.15C176.24,8.77,55.98,6.94,54.77,6.93l.07-6.86c.31,0,31.39.39,67.07,7.33,48.33,9.39,81.72,25.68,99.23,48.42,13.36,17.34,17.07,38.21,11.04,62.03-14.33,56.57-57.77,89.49-92.68,115.94-39.79,30.15-68.54,51.93-43.97,92.85,11.75,19.56,17.02,43.32,15.66,70.62-1.08,21.63-6.3,45.52-15.52,71.02-15.64,43.26-37.76,76.74-37.98,77.08Z"/>
      </g>
      <g class="cls-173">
        <path class="cls-41" d="M74.98,545.31l-5.68-3.77c.22-.32,21.7-32.92,36.74-75.14,13.74-38.56,24.79-93.3-.64-135.11-27.91-45.9,5.91-71.62,45.08-101.41,36.05-27.41,76.91-58.49,90.53-113.7,5.35-21.69,1.94-40.6-10.13-56.22C191.53,9.05,73.25,6.93,72.06,6.91l.09-6.82c.3,0,30.88.47,66.04,7.44,47.63,9.44,80.63,25.68,98.08,48.25,13.41,17.35,17.23,38.22,11.36,62.03-14.19,57.55-57.9,90.79-93.02,117.5-39.54,30.07-68.1,51.79-43.38,92.44,11.9,19.57,17.35,43.27,16.19,70.45-.92,21.54-5.96,45.3-15,70.63-15.33,42.97-37.22,76.16-37.44,76.49Z"/>
      </g>
      <g class="cls-172">
        <path class="cls-54" d="M92.27,545.28l-5.65-3.74c.21-.32,21.46-32.62,36.2-74.54,13.46-38.3,24.1-92.73-1.66-134.57-28.08-45.6,5.54-71.26,44.47-100.96,36.28-27.68,77.39-59.06,90.89-115.26,5.21-21.7,1.7-40.64-10.44-56.29C206.82,9.32,90.51,6.91,89.34,6.89l.11-6.77c.3,0,30.37.55,65.03,7.56,46.93,9.49,79.55,25.67,96.94,48.09,13.46,17.35,17.39,38.22,11.67,62.03-14.06,58.54-58.03,92.1-93.36,119.06-39.29,29.98-67.67,51.64-42.81,92.02,12.05,19.57,17.68,43.21,16.72,70.27-.76,21.44-5.63,45.07-14.48,70.24-15.02,42.68-36.68,75.57-36.89,75.9Z"/>
      </g>
      <g class="cls-153">
        <path class="cls-54" d="M109.55,545.25l-5.61-3.71c.21-.32,21.23-32.31,35.65-73.94,13.18-38.03,23.41-92.15-2.69-134.03-12.99-20.85-14-38.75-3.17-56.33,9.51-15.45,26.9-28.76,47.03-44.18,34.69-26.57,77.87-59.63,91.24-116.82,5.07-21.71,1.46-40.67-10.73-56.35C222.18,9.64,107.78,6.89,106.63,6.86l.13-6.73c.29,0,29.87.64,64.02,7.68,46.24,9.54,78.47,25.67,95.8,47.93,13.51,17.36,17.54,38.23,11.98,62.02-13.91,59.54-58.15,93.41-93.7,120.63-39.04,29.89-67.24,51.48-42.23,91.61,12.2,19.58,18,43.16,17.26,70.09-.59,21.35-5.29,44.85-13.97,69.84-14.71,42.4-36.14,74.99-36.35,75.31Z"/>
      </g>
      <g class="cls-160">
        <path class="cls-20" d="M126.84,545.22l-5.58-3.69c.21-.32,20.99-32.01,35.11-73.34,12.9-37.76,22.72-91.58-3.71-133.5-13.07-20.72-14.17-38.51-3.48-56.01,9.4-15.38,26.7-28.67,46.73-44.05,34.91-26.82,78.35-60.19,91.58-118.38,4.94-21.73,1.23-40.7-11.02-56.41C237.53,9.93,125.05,6.87,123.92,6.84l.15-6.68c.29,0,29.38.72,63.02,7.8,45.55,9.59,77.4,25.66,94.65,47.77,13.55,17.36,17.68,38.23,12.27,62.01-13.77,60.54-58.27,94.73-94.03,122.2-38.79,29.8-66.81,51.32-41.67,91.19,12.35,19.58,18.33,43.1,17.79,69.91-.43,21.26-4.96,44.63-13.45,69.45-14.4,42.11-35.6,74.41-35.81,74.73Z"/>
      </g>
      <g class="cls-170">
        <path class="cls-49" d="M144.13,545.18l-5.54-3.66c.21-.31,20.76-31.7,34.56-72.74,12.62-37.5,22.03-91.01-4.74-132.96-13.14-20.59-14.34-38.28-3.78-55.68,9.29-15.31,26.5-28.57,46.42-43.92,35.12-27.06,78.83-60.75,91.93-119.95,4.81-21.74,1.01-40.73-11.3-56.46C252.9,10.23,142.32,6.85,141.21,6.82l.17-6.64c.28,0,28.89.8,62.03,7.92,44.87,9.64,76.33,25.66,93.51,47.61,13.59,17.37,17.82,38.23,12.56,62-13.62,61.56-58.39,96.06-94.36,123.77-38.54,29.7-66.39,51.16-41.1,90.77,12.5,19.58,18.66,43.04,18.32,69.73-.27,21.17-4.62,44.4-12.93,69.06-14.09,41.82-35.06,73.82-35.27,74.14Z"/>
      </g>
      <g class="cls-176">
        <path class="cls-49" d="M161.42,545.15l-5.51-3.63c.2-.31,20.52-31.39,34.02-72.14,12.33-37.23,21.35-90.43-5.77-132.42-13.21-20.46-14.51-38.05-4.07-55.35,9.19-15.23,26.3-28.47,46.13-43.79,35.33-27.31,79.3-61.3,92.26-121.52,4.68-21.74.79-40.76-11.57-56.52C268.29,10.53,159.58,6.83,158.49,6.8l.19-6.59c.28,0,28.4.89,61.05,8.05,44.19,9.69,75.27,25.66,92.36,47.46,13.63,17.38,17.95,38.23,12.83,61.98-13.47,62.58-58.5,97.38-94.68,125.35-38.29,29.6-65.96,50.99-40.55,90.34,12.65,19.59,18.99,42.99,18.85,69.55-.11,21.08-4.29,44.18-12.41,68.66-13.78,41.54-34.52,73.24-34.73,73.55Z"/>
      </g>
      <g class="cls-74">
        <path class="cls-13" d="M178.71,545.12l-5.47-3.6c.2-.31,20.29-31.09,33.48-71.54,12.05-36.97,20.66-89.86-6.8-131.88-13.28-20.33-14.67-37.82-4.37-55.03,9.08-15.16,26.11-28.36,45.83-43.65,35.54-27.55,79.78-61.84,92.59-123.09,4.55-21.75.57-40.79-11.84-56.58C283.66,10.8,176.85,6.81,175.78,6.77l.21-6.55c.28,0,27.92.97,60.08,8.17,43.52,9.75,74.21,25.66,91.22,47.31,13.66,17.38,18.07,38.23,13.1,61.96-13.31,63.61-58.6,98.72-94.99,126.93-38.05,29.5-65.54,50.81-39.99,89.92,12.8,19.59,19.32,42.93,19.39,69.37.05,20.98-3.95,43.95-11.89,68.27-13.47,41.25-33.98,72.65-34.19,72.97Z"/>
      </g>
      <g class="cls-141">
        <path class="cls-13" d="M196,545.09l-5.44-3.57c.2-.3,20.06-30.78,32.94-70.94,11.77-36.7,19.97-89.29-7.83-131.35-13.35-20.21-14.83-37.59-4.66-54.7,8.97-15.09,25.92-28.26,45.53-43.51,35.75-27.79,80.25-62.38,92.92-124.67,4.43-21.75.36-40.8-12.1-56.62C299.12,11.14,194.12,6.79,193.06,6.75l.23-6.5c.27,0,27.45,1.06,59.11,8.3,42.85,9.8,73.16,25.67,90.08,47.15,13.69,17.39,18.19,38.23,13.36,61.95-13.15,64.65-58.7,100.05-95.3,128.51-37.81,29.39-65.13,50.63-39.44,89.49,12.95,19.6,19.65,42.88,19.92,69.19.21,20.89-3.62,43.73-11.38,67.88-13.17,40.96-33.45,72.07-33.65,72.38Z"/>
      </g>
      <g class="cls-77">
        <path class="cls-16" d="M213.29,545.06l-5.4-3.54c.2-.3,19.82-30.48,32.4-70.34,11.49-36.44,19.29-88.71-8.85-130.81-13.42-20.08-14.99-37.36-4.94-54.38,8.87-15.01,25.72-28.15,45.24-43.37,35.96-28.03,80.72-62.92,93.24-126.25,4.3-21.76.15-40.82-12.35-56.66C314.56,11.44,211.39,6.77,210.35,6.73l.26-6.45c.27.01,26.97,1.14,58.15,8.43,42.19,9.86,72.11,25.67,88.94,47,13.72,17.4,18.3,38.23,13.62,61.92-12.99,65.69-58.8,101.4-95.61,130.09-19,14.81-35.41,27.6-43.65,41.56-8.76,14.83-7.3,29.48,4.75,47.5,13.1,19.6,19.99,42.82,20.46,69.01.37,20.8-3.28,43.5-10.86,67.48-12.86,40.68-32.91,71.49-33.11,71.79Z"/>
      </g>
      <g class="cls-109">
        <path class="cls-16" d="M230.58,545.02l-5.37-3.51c.19-.3,19.59-30.17,31.86-69.74,11.21-36.17,18.6-88.14-9.88-130.27-13.49-19.96-15.15-37.13-5.23-54.05,8.76-14.94,25.53-28.04,44.95-43.22,36.17-28.27,81.19-63.45,93.56-127.83,4.18-21.76-.06-40.83-12.59-56.71C330.02,11.75,228.65,6.75,227.63,6.7l.28-6.41c.26.01,26.5,1.23,57.2,8.55,41.52,9.91,71.06,25.67,87.79,46.85,13.75,17.4,18.41,38.23,13.86,61.9-12.83,66.74-58.89,102.74-95.91,131.67-18.9,14.77-35.23,27.53-43.37,41.41-8.65,14.74-7.1,29.3,5.01,47.22,23.7,35.05,27.38,82.05,10.65,135.91-12.55,40.39-32.37,70.9-32.57,71.21Z"/>
      </g>
      <g class="cls-127">
        <path class="cls-7" d="M247.86,544.99l-5.33-3.49c.19-.29,19.36-29.87,31.32-69.14,10.93-35.91,17.92-87.57-10.92-129.74-13.56-19.83-15.31-36.91-5.51-53.73,8.66-14.86,25.35-27.94,44.67-43.07,36.38-28.5,81.65-63.97,93.87-129.41,4.06-21.76-.26-40.86-12.83-56.76C345.45,12.02,245.92,6.73,244.92,6.68l.3-6.36c.26.01,26.04,1.31,56.25,8.68,40.87,9.97,70.02,25.68,86.65,46.7,13.77,17.41,18.51,38.23,14.1,61.88-12.66,67.8-58.98,104.09-96.2,133.25-18.81,14.73-35.05,27.46-43.09,41.26-8.54,14.65-6.91,29.12,5.26,46.93,23.98,35.07,28.02,81.87,11.71,135.34-12.24,40.11-31.84,70.32-32.03,70.62Z"/>
      </g>
      <g class="cls-67">
        <path class="cls-35" d="M265.15,544.96l-5.3-3.46c.19-.29,19.13-29.56,30.78-68.54,10.66-35.64,17.23-86.99-11.95-129.2-13.63-19.71-15.46-36.68-5.78-53.41,8.56-14.79,25.16-27.83,44.38-42.92,36.59-28.73,82.12-64.48,94.17-130.99,3.94-21.75-.45-40.86-13.06-56.79C360.98,12.36,263.19,6.71,262.21,6.66l.33-6.32c.25.01,25.58,1.4,55.31,8.81,40.21,10.02,68.98,25.69,85.51,46.56,13.79,17.42,18.61,38.23,14.33,61.85-12.48,68.87-59.06,105.45-96.49,134.84-38.24,30.03-63.5,49.87-37.3,87.76,24.25,35.08,28.66,81.68,12.76,134.76-11.93,39.82-31.3,69.74-31.5,70.03Z"/>
      </g>
      <g class="cls-104">
        <path class="cls-35" d="M282.44,544.93l-5.26-3.43c.19-.29,18.89-29.26,30.24-67.94,10.38-35.38,16.55-86.42-12.98-128.67-29.72-42.52.18-66.06,38.04-95.86,36.79-28.96,82.58-65,94.47-132.58,3.83-21.75-.64-40.87-13.28-56.83C376.48,12.67,280.46,6.69,279.49,6.63l.35-6.27c.25.01,25.12,1.49,54.38,8.94,39.57,10.08,67.95,25.69,84.37,46.41,13.81,17.43,18.7,38.23,14.55,61.83-12.31,69.94-59.14,106.8-96.77,136.42-38,29.91-63.1,49.67-36.78,87.33,24.53,35.09,29.3,81.49,13.81,134.19-11.62,39.54-30.77,69.16-30.96,69.45Z"/>
      </g>
      <g class="cls-157">
        <path class="cls-6" d="M299.73,544.89l-5.23-3.4c.19-.28,18.66-28.95,29.7-67.34,10.1-35.12,15.86-85.85-14.01-128.13-29.86-42.26-.14-65.7,37.49-95.38,37-29.18,83.04-65.5,94.77-134.16,3.71-21.75-.83-40.88-13.5-56.87C392,12.98,297.72,6.67,296.77,6.61l.38-6.22c.24.02,24.67,1.57,53.46,9.07,38.92,10.13,66.92,25.7,83.22,46.27,13.82,17.44,18.79,38.23,14.77,61.8-12.13,71.02-59.22,108.16-97.05,138.01-37.76,29.79-62.71,49.46-36.26,86.89,24.8,35.1,29.95,81.3,14.87,133.61-11.31,39.25-29.65,67.67-30.42,68.86Z"/>
      </g>
      <g class="cls-110">
        <path class="cls-6" d="M317.02,544.86l-5.19-3.37c.18-.28,18.43-28.65,29.17-66.75,9.82-34.85,15.18-85.28-15.05-127.59-30-41.99-.45-65.34,36.95-94.91,37.2-29.41,83.5-66,95.06-135.75,3.6-21.74-1.01-40.89-13.72-56.92C407.5,13.25,314.99,6.65,314.06,6.59l.41-6.18c.24.02,24.22,1.66,52.54,9.2,38.28,10.19,65.89,25.71,82.08,46.12,13.84,17.45,18.87,38.23,14.97,61.77-11.95,72.11-59.29,109.53-97.33,139.59-37.53,29.66-62.32,49.26-35.75,86.45,25.08,35.11,30.59,81.11,15.92,133.03-11.01,38.97-29.12,67.1-29.89,68.28Z"/>
      </g>
      <g class="cls-169">
        <path class="cls-47" d="M334.31,544.83l-5.15-3.34c.18-.28,18.2-28.34,28.63-66.15,9.54-34.59,14.49-84.71-16.08-127.06-30.13-41.73-.77-64.99,36.41-94.43,37.41-29.62,83.96-66.49,95.34-137.34,3.49-21.73-1.19-40.89-13.92-56.94C423.08,13.59,332.25,6.63,331.34,6.56l.43-6.13c.96.07,23.78,1.75,51.62,9.33,37.64,10.25,64.87,25.72,80.94,45.98,13.85,17.46,18.95,38.23,15.17,61.74-11.76,73.2-59.35,110.89-97.59,141.18-37.29,29.54-61.93,49.05-35.24,86.02,25.36,35.12,31.23,80.92,16.98,132.45-10.7,38.68-28.6,66.53-29.35,67.69Z"/>
      </g>
      <g class="cls-163">
        <path class="cls-47" d="M351.6,544.8l-5.12-3.31c.18-.28,17.97-28.04,28.09-65.55,9.26-34.32,13.81-84.14-17.12-126.52-30.26-41.47-1.08-64.63,35.88-93.95,37.61-29.84,84.42-66.98,95.62-138.93,3.38-21.72-1.37-40.89-14.11-56.98C438.65,13.9,349.52,6.61,348.63,6.54l.46-6.08c3.77.29,92.66,7.55,130.52,55.3,13.85,17.47,19.02,38.24,15.37,61.71-11.56,74.3-59.41,112.26-97.85,142.77-37.06,29.41-61.55,48.84-34.74,85.58,25.64,35.13,31.87,80.74,18.04,131.87-10.39,38.4-28.07,65.96-28.82,67.11Z"/>
      </g>
      <g class="cls-95">
        <path class="cls-52" d="M368.89,544.77l-5.08-3.29c.18-.27,17.74-27.73,27.56-64.95,8.98-34.06,13.13-83.57-18.16-125.99-30.39-41.22-1.38-64.28,35.35-93.47,37.81-30.06,84.88-67.46,95.89-140.52,3.27-21.72-1.54-40.9-14.3-57.01C454.23,14.2,366.79,6.59,365.91,6.52l.49-6.03c3.69.3,90.92,7.88,128.48,55.28,13.86,17.49,19.09,38.24,15.55,61.69-5.05,33.51-17.89,62.72-39.24,89.3-18.37,22.86-39.88,39.96-58.87,55.06-36.84,29.28-61.17,48.62-34.24,85.14,25.91,35.15,32.52,80.55,19.09,131.29-10.08,38.11-27.54,65.38-28.28,66.53Z"/>
      </g>
      <g class="cls-148">
        <path class="cls-52" d="M386.17,544.73l-5.05-3.26c.17-.27,17.51-27.43,27.02-64.35,12.66-49.16,6.21-91.37-19.19-125.45-30.52-40.96-1.68-63.92,34.83-92.99,38.02-30.27,85.33-67.94,96.16-142.11,3.17-21.71-1.71-40.9-14.49-57.05C469.82,14.51,384.05,6.57,383.19,6.49l.52-5.99c3.62.31,89.19,8.22,126.44,55.27,13.86,17.5,19.15,38.24,15.73,61.66-4.96,34-17.8,63.59-39.25,90.46-18.44,23.1-40.05,40.31-59.11,55.49-36.61,29.15-60.8,48.4-33.75,84.7,26.19,35.15,33.16,80.35,20.15,130.71-9.77,37.83-27.02,64.81-27.75,65.94Z"/>
      </g>
      <g class="cls-136">
        <path class="cls-18" d="M403.46,544.7l-5.01-3.23c.17-.27,17.28-27.12,26.49-63.75,12.26-48.78,5.45-90.81-20.23-124.92-30.65-40.71-1.98-63.57,34.31-92.51,38.22-30.48,85.79-68.41,96.42-143.7,3.06-21.7-1.87-40.91-14.68-57.09C485.39,14.77,401.32,6.55,400.47,6.47l.55-5.94c3.55.33,87.47,8.56,124.42,55.26,13.86,17.51,19.21,38.25,15.91,61.63-4.87,34.49-17.71,64.46-39.25,91.62-18.52,23.35-40.21,40.65-59.36,55.91-36.39,29.02-60.43,48.19-33.27,84.26,26.47,35.16,33.81,80.16,21.21,130.13-9.47,37.54-26.5,64.24-27.22,65.36Z"/>
      </g>
      <g class="cls-142">
        <path class="cls-51" d="M420.75,544.67l-4.98-3.2c.17-.26,17.06-26.82,25.96-63.16,11.85-48.39,4.7-90.24-21.27-124.38-30.77-40.46-2.28-63.22,33.8-92.03,38.42-30.69,86.24-68.87,96.68-145.29,2.96-21.68-2.03-40.9-14.84-57.12C501.05,15.11,418.59,6.53,417.76,6.45l.58-5.89c3.48.34,85.77,8.9,122.4,55.25,13.85,17.53,19.26,38.25,16.07,61.6-10.75,78.77-61.67,119.43-98.85,149.12-36.17,28.88-60.06,47.96-32.78,83.82,26.75,35.17,34.45,79.97,22.26,129.55-9.16,37.26-25.97,63.67-26.68,64.78Z"/>
      </g>
      <g class="cls-175">
        <path class="cls-51" d="M438.04,544.64l-4.94-3.17c.17-.26,16.83-26.52,25.42-62.56,11.45-48.01,3.95-89.68-22.31-123.85-30.9-40.21-2.57-62.87,33.3-91.55,38.63-30.89,86.7-69.33,96.93-146.89,2.86-21.67-2.19-40.91-15.02-57.16-34.78-44.08-115.56-52.95-116.38-53.03l.61-5.84c3.42.36,84.08,9.23,120.38,55.24,13.85,17.55,19.31,38.26,16.23,61.57-10.54,79.9-61.72,120.82-99.08,150.71-35.95,28.75-59.7,47.74-32.31,83.39,27.03,35.18,35.1,79.78,23.32,128.97-8.85,36.97-25.45,63.1-26.15,64.19Z"/>
      </g>
      <g class="cls-97">
        <path class="cls-59" d="M455.33,544.6l-4.91-3.14c.17-.26,16.6-26.21,24.89-61.96,11.05-47.63,3.19-89.12-23.35-123.31-31.02-39.97-2.86-62.52,32.8-91.07,38.83-31.09,87.15-69.79,97.17-148.48,2.76-21.65-2.35-40.89-15.17-57.18-34.44-43.74-113.65-52.96-114.44-53.05l.64-5.79c3.35.37,82.41,9.56,118.37,55.23,13.84,17.57,19.35,38.27,16.38,61.54-10.32,81.03-61.76,122.22-99.31,152.29-35.73,28.61-59.34,47.51-31.84,82.95,27.31,35.19,35.74,79.59,24.38,128.38-8.54,36.69-24.93,62.53-25.62,63.61Z"/>
      </g>
      <g class="cls-166">
        <path class="cls-59" d="M472.62,544.57l-4.87-3.11c.16-.26,16.37-25.91,24.36-61.37,10.64-47.25,2.44-88.56-24.39-122.78-31.14-39.73-3.14-62.17,32.3-90.59,39.03-31.29,87.6-70.23,97.41-150.07,2.66-21.64-2.5-40.89-15.33-57.22-34.12-43.42-111.72-52.96-112.5-53.06l.67-5.75c3.28.38,80.75,9.89,116.37,55.21,13.82,17.59,19.39,38.28,16.53,61.51-10.1,82.18-61.79,123.62-99.54,153.88-35.52,28.48-58.98,47.29-31.37,82.51,34.86,44.47,33.08,94.04,25.44,127.8-8.24,36.4-24.4,61.96-25.09,63.03Z"/>
      </g>
      <g class="cls-161">
        <path class="cls-29" d="M489.91,544.54l-4.84-3.09c.16-.25,16.15-25.6,23.83-60.77,10.24-46.87,1.69-88-25.43-122.25-14.42-18.21-17.31-33.89-9.1-49.35,7.32-13.79,22.89-26.29,40.92-40.76,37.16-29.83,88.05-70.67,97.65-151.67,4.56-38.53-15.05-68.77-58.29-89.87-32.75-15.98-67.41-20.41-67.76-20.45l.7-5.7c1.45.18,35.85,4.56,69.45,20.93,45.11,21.97,66.41,55.08,61.59,95.76-9.87,83.33-61.82,125.02-99.75,155.47-17.53,14.07-32.67,26.22-39.44,38.97-7.1,13.38-4.47,26.67,8.53,43.1,35.22,44.48,33.85,93.73,26.5,127.22-7.93,36.12-23.88,61.39-24.56,62.45Z"/>
      </g>
      <g class="cls-117">
        <path class="cls-29" d="M507.19,544.51l-4.8-3.06c.16-.25,15.92-25.3,23.3-60.17,9.84-46.49.93-87.44-26.47-121.71-14.47-18.1-17.44-33.69-9.34-49.05,7.24-13.72,22.73-26.16,40.67-40.58,37.35-30.01,88.51-71.11,97.88-153.26,4.37-38.32-15.05-68.51-57.71-89.72-32.24-16.03-66.21-20.59-66.55-20.64l.74-5.65c1.42.19,35.26,4.73,68.35,21.18,44.4,22.08,65.44,55.09,60.84,95.46-9.64,84.48-61.85,126.43-99.97,157.05-17.45,14.02-32.51,26.12-39.2,38.8-7.01,13.29-4.31,26.5,8.75,42.84,35.57,44.49,34.62,93.42,27.56,126.63-7.62,35.83-23.36,60.82-24.03,61.86Z"/>
      </g>
      <g class="cls-113">
        <path class="cls-14" d="M524.48,544.47l-4.77-3.03c.16-.25,15.69-25,22.77-59.57,9.44-46.1.18-86.88-27.52-121.18-10.42-12.9-14.9-24.55-13.71-35.6,2.08-19.38,20.83-34.46,44.57-53.54,37.54-30.19,88.96-71.54,98.1-154.85,4.17-38.03-14.97-68.13-56.9-89.46-31.73-16.14-65.25-20.89-65.58-20.94l.77-5.6c1.4.19,34.68,4.9,67.25,21.44,43.7,22.18,64.47,55.09,60.08,95.17-9.4,85.64-61.87,127.83-100.18,158.64-22.72,18.27-40.66,32.69-42.49,49.75-1.02,9.49,3.06,19.78,12.49,31.45,35.93,44.5,35.39,93.11,28.62,126.05-7.31,35.55-22.84,60.25-23.5,61.28Z"/>
      </g>
      <g class="cls-145">
        <path class="cls-58" d="M541.77,544.44l-4.73-3c.15-.24,15.47-24.7,22.24-58.98,9.04-45.72-.57-86.31-28.56-120.64-10.48-12.85-15.01-24.45-13.85-35.46,2.02-19.23,20.65-34.23,44.24-53.21,37.73-30.37,89.41-71.96,98.32-156.45,3.99-37.82-14.96-67.87-56.32-89.31-31.23-16.19-64.05-21.08-64.38-21.12l.8-5.55c1.38.2,34.09,5.07,66.16,21.7,43,22.29,63.51,55.09,59.31,94.87-9.15,86.8-61.88,129.24-100.38,160.22-22.57,18.17-40.4,32.52-42.18,49.43-.99,9.44,3.14,19.69,12.62,31.33,36.29,44.51,36.17,92.79,29.67,125.46-7.01,35.26-22.32,59.68-22.97,60.7Z"/>
      </g>
      <g class="cls-103">
        <path class="cls-58" d="M559.06,544.41l-4.7-2.97c.15-.24,15.24-24.39,21.71-58.38,8.63-45.34-1.33-85.75-29.6-120.11-10.54-12.8-15.12-24.35-14-35.31,1.95-19.08,20.47-34,43.91-52.88,37.92-30.54,89.86-72.38,98.53-158.04,3.8-37.53-14.87-67.49-55.5-89.04-30.73-16.3-63.1-21.38-63.42-21.43l.84-5.5c1.35.21,33.51,5.25,65.07,21.95,42.3,22.4,62.54,55.1,58.55,94.57-8.91,87.97-61.89,130.65-100.58,161.81-22.43,18.07-40.15,32.34-41.87,49.12-.96,9.4,3.21,19.61,12.76,31.21,36.64,44.52,36.94,92.48,30.73,124.87-6.7,34.98-21.8,59.11-22.44,60.12Z"/>
      </g>
      <g class="cls-94">
        <path class="cls-40" d="M576.35,544.38l-4.66-2.94c.15-.24,15.01-24.09,21.18-57.79,8.23-44.96-2.08-85.19-30.65-119.57-10.6-12.76-15.22-24.26-14.14-35.16,1.89-18.93,20.29-33.76,43.59-52.54,38.11-30.72,90.31-72.79,98.74-159.63,3.62-37.32-14.85-67.23-54.91-88.89-30.23-16.35-61.91-21.57-62.23-21.62l.87-5.44c1.33.21,32.94,5.42,63.98,22.21,41.6,22.5,61.58,55.1,57.77,94.28-8.65,89.15-61.89,132.06-100.77,163.39-22.3,17.97-39.91,32.16-41.57,48.8-.93,9.36,3.28,19.53,12.89,31.09,37,44.53,37.71,92.17,31.79,124.29-6.39,34.7-21.28,58.54-21.91,59.54Z"/>
      </g>
      <g class="cls-96">
        <path class="cls-40" d="M593.64,544.35l-4.63-2.92c.15-.23,14.79-23.79,20.66-57.19,7.83-44.58-2.83-84.63-31.69-119.04-10.66-12.71-15.33-24.16-14.27-35.02,1.83-18.79,20.12-33.54,43.28-52.21,38.31-30.89,90.77-73.19,98.94-161.22,3.44-37.06-14.79-66.9-54.2-88.69-29.73-16.43-60.85-21.81-61.16-21.86l.91-5.39c1.31.22,32.36,5.59,62.89,22.47,40.9,22.61,60.61,55.11,57,93.98-8.39,90.33-61.89,133.47-100.96,164.98-22.16,17.87-39.66,31.98-41.27,48.48-.91,9.32,3.35,19.45,13.02,30.97,37.36,44.53,38.49,91.85,32.85,123.7-6.09,34.41-20.76,57.98-21.38,58.96Z"/>
      </g>
      <g class="cls-154">
        <path class="cls-44" d="M610.93,544.31l-4.59-2.89c.15-.23,14.56-23.49,20.13-56.6,7.43-44.2-3.59-84.08-32.74-118.5-10.72-12.66-15.44-24.07-14.41-34.87,1.77-18.64,19.95-33.3,42.97-51.87,38.5-31.06,91.22-73.6,99.14-162.82,3.26-36.77-14.69-66.52-53.37-88.41-29.22-16.54-59.9-22.12-60.21-22.18l.95-5.34c1.28.23,31.79,5.77,61.81,22.73,40.21,22.72,59.65,55.11,56.22,93.68-8.13,91.52-61.88,134.89-101.14,166.56-22.02,17.77-39.42,31.8-40.97,48.17-.88,9.27,3.42,19.37,13.15,30.86,37.72,44.54,39.26,91.53,33.92,123.11-5.78,34.13-20.24,57.41-20.85,58.38Z"/>
      </g>
      <g class="cls-152">
        <path class="cls-44" d="M628.22,544.28l-4.56-2.86c.14-.23,14.34-23.18,19.6-56,7.03-43.83-4.34-83.52-33.79-117.97-10.78-12.62-15.54-23.98-14.55-34.73,1.71-18.49,19.78-33.08,42.66-51.54,38.69-31.22,91.67-73.99,99.33-164.41,3.09-36.51-14.62-66.19-52.66-88.2-28.72-16.62-58.84-22.37-59.14-22.43l.98-5.29c1.26.23,31.21,5.94,60.73,22.99,39.51,22.82,58.68,55.11,55.44,93.38-7.85,92.71-61.87,136.31-101.31,168.14-21.89,17.67-39.18,31.62-40.68,47.85-.85,9.23,3.49,19.29,13.28,30.74,38.08,44.55,40.04,91.22,34.98,122.52-5.47,33.85-19.72,56.84-20.32,57.8Z"/>
      </g>
      <g class="cls-101">
        <path class="cls-8" d="M645.5,544.25l-4.52-2.83c.14-.22,14.12-22.88,19.08-55.41,6.63-43.45-5.09-82.96-34.83-117.43-10.84-12.57-15.65-23.88-14.68-34.59,1.65-18.34,19.62-32.85,42.36-51.2,38.88-31.39,92.13-74.38,99.52-166,2.93-36.26-14.55-65.86-51.94-87.99-28.23-16.71-57.79-22.62-58.08-22.68l1.02-5.23c1.24.24,30.64,6.11,59.66,23.25,38.82,22.93,57.72,55.12,54.66,93.08-7.58,93.9-61.85,137.72-101.49,169.72-21.76,17.57-38.94,31.44-40.39,47.53-.83,9.19,3.56,19.2,13.41,30.62,38.44,44.55,40.81,90.9,36.04,121.93-5.16,33.56-19.2,56.27-19.8,57.22Z"/>
      </g>
      <g class="cls-92">
        <path class="cls-64" d="M662.79,544.22l-4.49-2.8c.14-.22,13.89-22.58,18.55-54.82,6.23-43.07-5.85-82.4-35.88-116.9-10.9-12.53-15.75-23.79-14.82-34.44,1.6-18.2,19.45-32.62,42.06-50.87,39.07-31.55,92.58-74.76,99.7-167.59,2.76-36.04-14.51-65.6-51.33-87.85-27.73-16.76-56.62-22.8-56.91-22.86l1.06-5.18c1.21.25,30.08,6.29,58.58,23.51,38.13,23.04,56.76,55.12,53.87,92.78-7.29,95.1-61.83,139.14-101.65,171.3-21.63,17.46-38.71,31.26-40.11,47.22-.8,9.15,3.62,19.12,13.54,30.51,38.8,44.56,41.59,90.58,37.1,121.34-4.86,33.28-18.68,55.71-19.27,56.65Z"/>
      </g>
      <g class="cls-107">
        <path class="cls-64" d="M680.08,544.18l-4.45-2.77c.14-.22,13.67-22.28,18.03-54.22,5.83-42.69-6.6-81.84-36.93-116.36-10.96-12.48-15.85-23.7-14.95-34.3,1.54-18.06,19.29-32.39,41.76-50.54,39.27-31.71,93.04-75.14,99.88-169.18,2.6-35.74-14.39-65.21-50.49-87.57-27.24-16.87-55.69-23.12-55.97-23.18l1.1-5.13c1.19.26,29.51,6.46,57.51,23.78,37.44,23.15,55.79,55.12,53.08,92.48-7,96.31-61.8,140.56-101.81,172.88-21.5,17.36-38.48,31.07-39.83,46.9-.78,9.1,3.69,19.04,13.66,30.39,39.16,44.56,42.36,90.26,38.16,120.75-4.55,33-18.16,55.14-18.74,56.07Z"/>
      </g>
      <g class="cls-150">
        <path class="cls-19" d="M697.37,544.15l-4.42-2.74c.13-.22,13.44-21.98,17.5-53.63,3.73-29.09.17-72.8-37.98-115.83-11.02-12.43-15.96-23.61-15.08-34.16,1.49-17.91,19.13-32.16,41.47-50.2,39.46-31.87,93.5-75.51,100.05-170.77,2.44-35.48-14.3-64.88-49.76-87.35-26.74-16.95-54.64-23.37-54.92-23.43l1.14-5.07c1.17.26,28.95,6.64,56.45,24.04,36.75,23.25,54.83,55.13,52.28,92.18-6.71,97.52-61.77,141.99-101.97,174.45-21.37,17.26-38.25,30.89-39.56,46.59-.75,9.06,3.76,18.97,13.79,30.28,39.52,44.57,43.14,89.94,39.22,120.16-4.24,32.71-17.65,54.58-18.21,55.49Z"/>
      </g>
      <g class="cls-115">
        <path class="cls-19" d="M714.66,544.12l-4.38-2.71c.13-.21,13.22-21.68,16.98-53.04,3.46-28.83-.51-72.24-39.03-115.29-11.08-12.39-16.06-23.52-15.21-34.02,1.44-17.77,18.98-31.93,41.18-49.87,39.65-32.02,93.96-75.88,100.22-172.35,2.29-35.27-14.25-64.61-49.15-87.21-26.25-17-53.49-23.55-53.76-23.61l1.18-5.02c1.15.27,28.38,6.82,55.38,24.3,36.07,23.36,53.87,55.13,51.49,91.87-6.4,98.74-61.73,143.41-102.12,176.03-21.24,17.16-38.02,30.71-39.29,46.27-.73,9.02,3.82,18.89,13.91,30.17,39.88,44.57,43.92,89.62,40.28,119.57-3.94,32.43-17.13,54.01-17.69,54.91Z"/>
      </g>
      <g class="cls-143">
        <path class="cls-60" d="M731.95,544.09l-4.35-2.68c.13-.21,13-21.38,16.46-52.45,3.18-28.57-1.19-71.67-40.08-114.76-11.14-12.34-16.16-23.43-15.34-33.88,1.39-17.63,18.83-31.71,40.9-49.53,39.85-32.17,94.42-76.23,100.38-173.94,2.13-34.97-14.12-64.21-48.3-86.93-25.76-17.12-52.56-23.87-52.83-23.94l1.22-4.96c1.12.28,27.82,6.99,54.32,24.56,35.38,23.47,52.91,55.13,50.69,91.57-2.7,44.24-15.3,81.62-38.52,114.27-19.82,27.87-44.18,47.54-63.75,63.34-21.12,17.05-37.8,30.52-39.02,45.96-.71,8.98,3.88,18.81,14.04,30.06,40.24,44.58,44.69,89.3,41.34,118.97-3.63,32.15-16.61,53.45-17.16,54.34Z"/>
      </g>
      <g class="cls-79">
        <path class="cls-60" d="M749.24,544.05l-4.31-2.66c.13-.21,12.77-21.08,15.93-51.85,2.9-28.31-1.87-71.11-41.14-114.22-11.2-12.3-16.26-23.34-15.46-33.74,1.34-17.49,18.68-31.48,40.62-49.2,40.04-32.32,94.88-76.59,100.53-175.53,1.98-34.71-14.02-63.88-47.56-86.71-25.27-17.2-51.53-24.12-51.79-24.19l1.27-4.9c1.1.28,27.27,7.17,53.26,24.83,34.7,23.58,51.95,55.13,49.89,91.27-2.56,44.77-15.13,82.55-38.44,115.49-19.89,28.11-44.33,47.84-63.97,63.69-21,16.95-37.58,30.34-38.76,45.64-.68,8.94,3.95,18.73,14.16,29.94,40.6,44.58,45.47,88.98,42.4,118.38-3.32,31.87-16.09,52.88-16.63,53.76Z"/>
      </g>
      <g class="cls-147">
        <path class="cls-2" d="M766.53,544.02l-4.28-2.63c.12-.2,12.55-20.78,15.41-51.26,2.63-28.05-2.55-70.55-42.19-113.69-11.26-12.26-16.36-23.25-15.59-33.6,1.29-17.35,18.53-31.25,40.35-48.86,40.24-32.47,95.35-76.94,100.68-177.11,1.83-34.44-13.92-63.55-46.82-86.5-24.78-17.28-50.5-24.38-50.75-24.45l1.31-4.84c1.08.29,26.71,7.35,52.2,25.09,34.02,23.68,50.99,55.14,49.08,90.96-2.41,45.31-14.96,83.48-38.34,116.71-19.95,28.34-44.48,48.14-64.2,64.04-20.88,16.85-37.37,30.15-38.5,45.33-.66,8.89,4.01,18.65,14.28,29.83,40.96,44.58,46.25,88.66,43.47,117.79-3.01,31.58-15.58,52.32-16.11,53.19Z"/>
      </g>
      <g class="cls-88">
        <path class="cls-17" d="M783.81,543.99l-4.24-2.6c.12-.2,12.33-20.48,14.89-50.67,2.36-27.8-3.23-69.99-43.24-113.15-11.32-12.21-16.46-23.16-15.71-33.46,1.25-17.21,18.38-31.03,40.08-48.53,40.44-32.61,95.81-77.28,100.83-178.7,1.69-34.23-13.85-63.28-46.19-86.37-24.29-17.34-49.36-24.55-49.61-24.62l1.35-4.79c1.06.3,26.15,7.52,51.14,25.36,33.34,23.79,50.03,55.14,48.27,90.66-2.27,45.85-14.78,84.42-38.25,117.93-20.01,28.57-44.64,48.44-64.42,64.39-20.76,16.74-37.15,29.97-38.24,45.02-.64,8.85,4.07,18.58,14.4,29.72,41.32,44.58,47.02,88.34,44.53,117.19-2.71,31.3-15.06,51.75-15.58,52.61Z"/>
      </g>
      <g class="cls-155">
        <path class="cls-17" d="M801.1,543.96l-4.21-2.57c.12-.2,12.11-20.18,14.37-50.08,2.08-27.54-3.92-69.43-44.29-112.61-11.38-12.17-16.56-23.07-15.84-33.32,1.2-17.07,18.24-30.81,39.81-48.2,40.63-32.76,96.28-77.62,100.97-180.28,1.55-33.96-13.74-62.95-45.45-86.15-23.81-17.42-48.33-24.8-48.58-24.87l1.4-4.73c1.03.31,25.6,7.7,50.09,25.62,32.66,23.9,49.07,55.14,47.46,90.35-2.12,46.39-14.59,85.36-38.15,119.16-20.08,28.81-44.79,48.73-64.65,64.74-20.64,16.64-36.94,29.78-37.99,44.71-.62,8.81,4.13,18.5,14.52,29.61,41.69,44.59,47.8,88.01,45.59,116.6-2.4,31.02-14.54,51.19-15.06,52.03Z"/>
      </g>
      <g class="cls-106">
        <path class="cls-27" d="M818.39,543.92l-4.17-2.54c.12-.2,11.89-19.88,13.85-49.49,1.81-27.28-4.6-68.87-45.35-112.08-11.6-12.29-16.67-22.84-15.96-33.18,1.16-16.93,18.1-30.58,39.55-47.87,40.83-32.9,96.75-77.95,101.1-181.87,1.41-33.66-13.59-62.54-44.59-85.86-23.32-17.54-47.42-25.14-47.66-25.21l1.45-4.66c1.01.31,25.04,7.88,49.03,25.89,31.98,24,48.11,55.14,46.65,90.05-1.96,46.93-14.41,86.3-38.04,120.38-20.14,29.04-44.94,49.02-64.88,65.08-20.52,16.53-36.73,29.59-37.74,44.4-.6,8.77,4.19,18.42,14.64,29.5,42.05,44.59,48.58,87.69,46.65,116-2.09,30.74-14.03,50.63-14.53,51.46Z"/>
      </g>
      <g class="cls-90">
        <path class="cls-27" d="M835.68,543.89l-4.13-2.51c.12-.19,11.67-19.58,13.33-48.9,1.53-27.02-5.28-68.31-46.4-111.54-11.65-12.25-16.76-22.75-16.08-33.05,1.11-16.79,17.96-30.36,39.29-47.53,41.03-33.04,97.23-78.28,101.23-183.45,1.27-33.44-13.52-62.28-43.95-85.73-22.83-17.59-46.29-25.3-46.52-25.38l1.49-4.6c.99.32,24.49,8.06,47.98,26.15,31.3,24.11,47.15,55.14,45.84,89.74-1.81,47.47-14.21,87.25-37.93,121.61-20.2,29.27-45.1,49.32-65.1,65.42-20.41,16.43-36.53,29.41-37.5,44.09-.58,8.73,4.25,18.34,14.76,29.39,42.41,44.59,49.36,87.37,47.71,115.4-1.79,30.45-13.51,50.07-14.01,50.88Z"/>
      </g>
      <g class="cls-82">
        <path class="cls-43" d="M852.97,543.86l-4.1-2.48c.11-.19,11.44-19.28,12.81-48.31,1.26-26.76-5.96-67.75-47.46-111-11.71-12.21-16.86-22.67-16.2-32.91,1.07-16.66,17.83-30.14,39.04-47.2,41.23-33.17,97.7-78.6,101.35-185.03,1.14-33.13-13.36-61.87-43.09-85.43-22.35-17.7-45.38-25.64-45.61-25.72l1.54-4.54c.97.33,23.94,8.23,46.94,26.41,30.63,24.22,46.2,55.14,45.02,89.44-1.65,48.01-14.01,88.2-37.81,122.84-20.26,29.5-45.25,49.6-65.33,65.76-20.29,16.33-36.32,29.22-37.26,43.78-.56,8.69,4.31,18.27,14.88,29.28,42.78,44.59,50.14,87.04,48.78,114.8-1.48,30.17-12.99,49.5-13.48,50.31Z"/>
      </g>
      <g class="cls-123">
        <path class="cls-43" d="M870.26,543.83l-4.06-2.45c.11-.18,11.22-18.98,12.29-47.72.98-26.5-6.64-67.19-48.52-110.47-11.77-12.16-16.96-22.58-16.32-32.77,1.03-16.52,17.69-29.92,38.79-46.87,41.44-33.31,98.18-78.92,101.47-186.61,1-32.87-13.24-61.54-42.34-85.21-21.87-17.79-44.37-25.9-44.59-25.98l1.59-4.47c.94.33,23.39,8.41,45.89,26.68,29.95,24.32,45.24,55.14,44.2,89.13-1.48,48.56-13.81,89.15-37.69,124.07-20.32,29.73-45.41,49.89-65.56,66.09-20.18,16.22-36.12,29.04-37.03,43.47-.54,8.65,4.36,18.19,14.99,29.17,43.14,44.59,50.91,86.72,49.84,114.21-1.17,29.89-12.48,48.94-12.96,49.74Z"/>
      </g>
      <g class="cls-159">
        <path class="cls-12" d="M887.55,543.79l-4.03-2.42c.11-.18,11-18.68,11.77-47.14.71-26.25-7.32-66.63-49.57-109.93-11.83-12.12-17.05-22.49-16.44-32.64.99-16.39,17.56-29.7,38.55-46.55,39.29-31.55,98.67-79.23,101.59-188.19.87-32.61-13.12-61.2-41.58-85-21.38-17.87-43.36-26.15-43.57-26.24l1.64-4.41c.92.34,22.84,8.59,44.84,26.94,29.28,24.43,44.28,55.14,43.38,88.82-2.98,111.13-63.38,159.63-103.34,191.73-20.07,16.12-35.93,28.85-36.8,43.16-.52,8.61,4.42,18.11,15.11,29.07,43.51,44.59,51.69,86.39,50.9,113.61-.86,29.61-11.96,48.38-12.43,49.17Z"/>
      </g>
      <g class="cls-76">
        <path class="cls-62" d="M904.84,543.76l-4-2.39c.11-.18,10.78-18.39,11.25-46.55.43-25.99-8-66.07-50.63-109.39-11.88-12.08-17.14-22.41-16.55-32.5.96-16.26,17.44-29.48,38.3-46.22,39.48-31.67,99.15-79.54,101.7-189.76.75-32.39-13.02-60.94-40.93-84.87-20.9-17.93-42.24-26.32-42.45-26.4l1.68-4.34c.9.35,22.3,8.77,43.8,27.21,28.61,24.54,43.33,55.14,42.56,88.52-2.59,112.39-63.28,161.08-103.44,193.29-19.96,16.01-35.73,28.67-36.57,42.86-.5,8.57,4.48,18.04,15.22,28.96,43.87,44.58,52.47,86.06,51.96,113.01-.56,29.33-11.45,47.82-11.91,48.59Z"/>
      </g>
      <g class="cls-66">
        <path class="cls-62" d="M922.12,543.73l-3.96-2.37c.1-.18,10.56-18.09,10.73-45.96.16-25.73-8.68-65.51-51.69-108.85-11.94-12.03-17.24-22.32-16.67-32.36.92-16.13,17.31-29.26,38.07-45.89,39.68-31.79,99.64-79.84,101.8-191.34.77-40.01-21.42-68.12-40.17-84.66-20.42-18.01-41.23-26.57-41.44-26.66l1.74-4.27c.88.36,21.75,8.94,42.76,27.47,27.94,24.64,42.37,55.14,41.73,88.21-2.2,113.66-63.18,162.52-103.53,194.85-19.86,15.91-35.54,28.48-36.35,42.55-.49,8.52,4.53,17.96,15.33,28.85,44.24,44.58,53.25,85.74,53.02,112.41-.25,29.05-10.93,47.26-11.38,48.02Z"/>
      </g>
      <g class="cls-98">
        <path class="cls-56" d="M939.41,543.7l-3.92-2.34c.1-.17,10.34-17.79,10.22-45.38-.12-25.48-9.36-64.95-52.75-108.32-12-11.99-17.33-22.23-16.78-32.23.88-15.99,17.19-29.04,37.83-45.56,39.88-31.91,100.14-80.13,101.9-192.91.62-39.68-21.09-67.83-39.41-84.45-19.94-18.1-40.23-26.83-40.43-26.91l1.79-4.2c.86.36,21.21,9.12,41.72,27.74,19.02,17.26,41.55,46.51,40.9,87.9-1.79,114.93-63.07,163.96-103.61,196.41-19.75,15.81-35.36,28.29-36.13,42.25-.47,8.48,4.58,17.89,15.45,28.74,44.6,44.58,54.03,85.41,54.09,111.81.06,28.76-10.41,46.7-10.86,47.45Z"/>
      </g>
      <g class="cls-156">
        <path class="cls-56" d="M956.7,543.66l-3.89-2.31c.1-.17,10.12-17.5,9.7-44.79-.39-25.22-10.04-64.39-53.81-107.78-12.05-11.95-17.42-22.15-16.89-32.09.85-15.86,17.07-28.83,37.6-45.24,40.07-32.03,100.63-80.42,101.99-194.49.47-39.3-20.7-67.44-38.54-84.14-19.46-18.22-39.33-27.18-39.53-27.27l1.84-4.13c.83.37,20.66,9.3,40.68,28,18.55,17.33,40.56,46.59,40.08,87.59-1.38,116.2-62.95,165.41-103.69,197.97-19.65,15.71-35.17,28.11-35.91,41.95-.46,8.56,4.49,17.66,15.56,28.64,44.97,44.58,54.81,85.08,55.15,111.21.37,28.48-9.9,46.14-10.33,46.88Z"/>
      </g>
      <g class="cls-126">
        <path class="cls-3" d="M973.99,543.63l-3.86-2.28c.1-.17,9.9-17.2,9.18-44.21-.67-24.96-10.72-63.83-54.87-107.24-12.11-11.91-17.51-22.06-17-31.95.81-15.74,16.95-28.61,37.38-44.92,40.27-32.14,101.13-80.71,102.08-196.06.32-38.97-20.36-67.15-37.77-83.93-18.99-18.3-38.33-27.44-38.53-27.53l1.89-4.06c.81.38,20.12,9.48,39.64,28.26,18.09,17.4,39.58,46.67,39.25,87.29-.96,117.48-62.82,166.85-103.76,199.52-19.55,15.6-34.99,27.92-35.7,41.65-.44,8.52,4.54,17.59,15.67,28.53,45.33,44.57,55.59,84.75,56.21,110.61.68,28.2-9.38,45.58-9.81,46.3Z"/>
      </g>
      <g class="cls-164">
        <path class="cls-3" d="M991.28,543.6l-3.82-2.25c.09-.16,9.68-16.9,8.67-43.62-.94-24.71-11.41-63.28-55.93-106.7-12.17-11.86-17.6-21.97-17.11-31.82.78-15.61,16.84-28.4,37.16-44.59,40.47-32.25,101.64-80.99,102.16-197.63.17-38.64-20.03-66.85-37-83.71-18.51-18.39-37.34-27.69-37.52-27.79l1.94-3.98c.79.39,19.58,9.66,38.6,28.52,17.62,17.48,38.59,46.75,38.41,86.98-.53,118.76-62.69,168.3-103.83,201.08-19.45,15.5-34.81,27.74-35.5,41.35-.42,8.48,4.59,17.51,15.78,28.42,45.7,44.57,56.37,84.42,57.27,110,.99,27.92-8.87,45.02-9.29,45.73Z"/>
      </g>
      <g class="cls-130">
        <path class="cls-21" d="M1008.57,543.56l-3.79-2.22c.09-.16,9.47-16.61,8.15-43.04-1.21-24.45-12.09-62.72-56.99-106.16-12.22-11.82-17.69-21.89-17.22-31.68.75-15.48,16.72-28.19,36.94-44.27,40.68-32.36,102.15-81.26,102.24-199.2.03-38.31-19.69-66.55-36.23-83.5-18.04-18.48-36.34-27.95-36.52-28.05l2-3.91c.77.39,19.03,9.83,37.57,28.79,17.16,17.55,37.61,46.83,37.58,86.67-.09,120.05-62.55,169.75-103.89,202.63-19.35,15.4-34.64,27.56-35.29,41.05-.41,8.44,4.64,17.44,15.88,28.32,46.07,44.56,57.15,84.09,58.33,109.4,1.29,27.64-8.35,44.46-8.76,45.16Z"/>
      </g>
      <g class="cls-89">
        <path class="cls-21" d="M1025.86,543.53l-3.75-2.19c.09-.16,9.25-16.31,7.64-42.46-1.49-24.2-12.77-62.16-58.05-105.62-12.27-11.78-17.78-21.8-17.32-31.55.72-15.35,16.61-27.97,36.73-43.95,40.88-32.47,102.67-81.53,102.31-200.77-.11-37.97-19.35-66.25-35.46-83.29-17.56-18.56-35.35-28.21-35.53-28.31l2.05-3.83c.75.4,18.49,10.01,36.53,29.05,16.7,17.62,36.63,46.91,36.74,86.36.37,121.34-62.41,171.19-103.95,204.18-19.26,15.29-34.47,27.37-35.09,40.76-.39,8.4,4.69,17.36,15.99,28.21,46.43,44.56,57.93,83.76,59.4,108.8,1.6,27.36-7.84,43.9-8.24,44.59Z"/>
      </g>
      <g class="cls-138">
        <path class="cls-39" d="M1043.15,543.5l-3.72-2.16c.09-.15,9.03-16.02,7.12-41.87-1.76-23.94-13.45-61.61-59.11-105.07-12.33-11.74-17.87-21.72-17.43-31.41.69-15.23,15.72-27.14,36.52-43.64,41.09-32.57,103.18-81.8,102.37-202.33-.49-72.22-68.53-111.26-69.21-111.64l2.1-3.75c.72.41,17.95,10.19,35.5,29.31,16.24,17.69,35.64,46.98,35.91,86.05.83,122.63-62.25,172.64-104,205.73-19.16,15.19-34.3,27.19-34.9,40.46-.38,8.36,4.74,17.29,16.1,28.1,46.8,44.55,58.71,83.43,60.46,108.19,1.91,27.08-7.32,43.34-7.71,44.02Z"/>
      </g>
      <g class="cls-80">
        <path class="cls-28" d="M1060.44,543.46l-3.68-2.12c.09-.15,8.81-15.72,6.61-41.29-2.04-23.69-14.13-61.05-60.17-104.53-12.38-11.69-17.95-21.63-17.53-31.27.66-15.1,15.62-26.94,36.32-43.32,41.3-32.68,103.71-82.06,102.43-203.9-.39-37.31-18.66-65.66-33.91-82.86-16.61-18.74-33.37-28.73-33.54-28.83l2.16-3.66c.7.41,17.41,10.36,34.47,29.57,15.78,17.76,34.67,47.06,35.07,85.74,1.3,123.92-62.09,174.08-104.04,207.28-19.82,15.68-34.13,27.01-34.71,40.17-.36,8.32,4.78,17.21,16.2,28,47.17,44.55,59.49,83.09,61.52,107.59,2.22,26.79-6.8,42.78-7.19,43.45Z"/>
      </g>
      <g class="cls-158">
        <path class="cls-28" d="M1077.73,543.43l-3.65-2.1c.08-.15,8.59-15.43,6.09-40.71-2.31-23.43-14.82-60.5-61.24-103.99-12.43-11.65-18.04-21.55-17.63-31.14.63-14.98,15.52-26.74,36.12-43,41.51-32.78,104.24-82.31,102.49-205.46-1.01-70.94-65.03-111.34-65.67-111.74l2.21-3.58c.68.42,16.88,10.54,33.44,29.82,15.32,17.84,33.69,47.14,34.23,85.43,1.78,125.22-61.93,175.53-104.09,208.82-19.72,15.57-33.97,26.83-34.52,39.88-.35,8.28,4.83,17.14,16.3,27.89,47.53,44.54,60.27,82.76,62.58,106.98,2.53,26.51-6.29,42.23-6.67,42.88Z"/>
      </g>
      <g class="cls-87">
        <path class="cls-42" d="M1095.01,543.4l-3.61-2.06c.08-.15,8.37-15.14,5.58-40.13-2.59-23.18-15.5-59.94-62.3-103.45-12.49-11.61-18.12-21.46-17.73-31,.61-14.86,15.42-26.53,35.92-42.69,41.72-32.88,104.78-82.56,102.54-207.02-.66-36.65-17.96-65.06-32.35-82.44-15.67-18.92-31.4-29.25-31.56-29.35l2.27-3.49c.66.43,16.34,10.71,32.41,30.08,14.86,17.91,32.71,47.21,33.39,85.13,2.28,126.52-61.75,176.98-104.12,210.37-19.63,15.47-33.81,26.65-34.34,39.59-.34,8.24,4.88,17.07,16.41,27.78,47.9,44.53,61.05,82.43,63.64,106.38,2.84,26.23-5.77,41.67-6.14,42.31Z"/>
      </g>
      <g class="cls-71">
        <path class="cls-42" d="M1112.3,543.36l-3.58-2.03c.08-.14,8.16-14.84,5.07-39.55-2.86-22.92-16.18-59.38-63.36-102.9-12.54-11.57-18.21-21.37-17.83-30.87.58-14.74,15.33-26.33,35.73-42.38,41.94-32.98,105.32-82.81,102.58-208.58-1.52-69.67-61.53-111.43-62.13-111.84l2.32-3.4c.64.44,15.8,10.89,31.38,30.34,14.4,17.98,31.73,47.29,32.55,84.82,2.79,127.83-61.57,178.43-104.15,211.91-19.54,15.36-33.66,26.46-34.17,39.3-.32,8.2,4.92,16.99,16.51,27.68,48.27,44.52,61.83,82.09,64.7,105.77,3.15,25.95-5.26,41.11-5.62,41.74Z"/>
      </g>
      <g class="cls-134">
        <path class="cls-65" d="M1129.59,543.33l-3.54-2c.08-.14,7.94-14.55,4.55-38.98-3.14-22.67-16.87-58.83-64.43-102.36-12.59-11.52-18.29-21.29-17.93-30.73.56-14.62,15.23-26.13,35.55-42.07,42.16-33.07,105.87-83.05,102.62-210.14-1.77-68.97-59.78-111.48-60.37-111.9l2.38-3.31c.62.44,15.26,11.06,30.35,30.59,13.94,18.05,30.76,47.36,31.71,84.51,1.46,56.94-10,103.63-35.04,142.74-21.2,33.11-47.78,53.96-69.13,70.71-19.45,15.26-33.51,26.29-33.99,39.02-.31,8.16,4.97,16.92,16.61,27.57,48.64,44.52,62.61,81.76,65.76,105.17,3.46,25.67-4.74,40.55-5.09,41.17Z"/>
      </g>
      <g class="cls-85">
        <path class="cls-65" d="M1146.88,543.3l-3.51-1.97c.08-.14,7.72-14.26,4.04-38.4-3.42-22.42-17.55-58.27-65.49-101.81-12.64-11.48-18.37-21.2-18.02-30.6.53-14.5,15.14-25.93,35.37-41.76,42.38-33.17,106.42-83.29,102.65-211.7-2.01-68.33-58.03-111.53-58.59-111.95l2.43-3.21c.59.45,14.73,11.24,29.32,30.85,13.48,18.12,29.79,47.44,30.87,84.2,1.69,57.51-9.69,104.61-34.8,143.99-21.25,33.33-47.94,54.22-69.39,71-19.37,15.16-33.36,26.11-33.82,38.74-.3,8.12,5.01,16.84,16.71,27.47,49.01,44.51,63.39,81.42,66.82,104.56,3.77,25.39-4.23,40-4.57,40.61Z"/>
      </g>
      <g class="cls-68">
        <path class="cls-23" d="M1164.17,543.26l-3.48-1.94c.07-.13,7.5-13.97,3.53-37.83-3.69-22.16-18.23-57.72-66.56-101.27-12.69-11.44-18.45-21.12-18.12-30.46.51-14.38,15.05-25.74,35.19-41.45,42.6-33.26,106.99-83.52,102.68-213.25-2.25-67.75-56.28-111.57-56.82-112.01l2.48-3.11c.57.46,14.19,11.41,28.3,31.1,13.03,18.19,28.81,47.51,30.02,83.89,1.93,58.08-9.37,105.59-34.56,145.24-21.31,33.55-48.11,54.47-69.65,71.28-19.28,15.05-33.21,25.93-33.66,38.45-.29,8.08,5.05,16.77,16.8,27.36,49.38,44.5,64.17,81.09,67.88,103.95,4.08,25.11-3.71,39.44-4.04,40.04Z"/>
      </g>
      <g class="cls-140">
        <path class="cls-53" d="M1181.46,543.23l-3.44-1.91c.07-.13,7.29-13.68,3.02-37.25-3.97-21.91-18.92-57.16-67.62-100.72-12.74-11.39-18.53-21.03-18.21-30.32.49-14.26,14.97-25.54,35.01-41.15,42.83-33.35,107.56-83.74,102.7-214.81-2.49-67.06-54.53-111.62-55.05-112.07l2.53-3.01c.55.46,13.66,11.58,27.27,31.35,12.57,18.26,27.84,47.59,29.18,83.58,2.18,58.65-9.05,106.57-34.31,146.5-21.36,33.77-48.28,54.72-69.91,71.56-19.2,14.95-33.07,25.75-33.5,38.17-.27,8.04,5.1,16.7,16.9,27.25,49.75,44.49,64.95,80.76,68.94,103.34,4.39,24.83-3.19,38.88-3.52,39.47Z"/>
      </g>
      <g class="cls-135">
        <path class="cls-53" d="M1198.75,543.2l-3.41-1.88c.07-.13,7.07-13.39,2.51-36.68-4.24-21.65-19.6-56.61-68.69-100.17-12.79-11.35-18.61-20.94-18.3-30.19.46-14.15,14.88-25.35,34.84-40.84,43.06-33.44,108.13-83.97,102.71-216.36-2.72-66.42-52.78-111.68-53.28-112.12l2.58-2.91c.52.46,51.79,46.76,54.58,114.88,2.43,59.23-8.71,107.56-34.05,147.76-21.42,33.98-48.45,54.97-70.17,71.84-19.12,14.85-32.94,25.57-33.34,37.9-.26,8,5.14,16.62,17,27.15,50.12,44.48,65.73,80.42,70,102.74,4.7,24.54-2.68,38.33-2.99,38.9Z"/>
      </g>
      <g class="cls-171">
        <path class="cls-24" d="M1216.04,543.16l-3.38-1.84c.07-.12,6.85-13.1,1.99-36.11-4.52-21.4-20.29-56.05-69.75-99.62-12.84-11.31-18.68-20.86-18.39-30.05.44-14.03,14.8-25.15,34.68-40.54,43.29-33.52,108.72-84.18,102.72-217.91-2.95-65.79-51.02-111.73-51.51-112.19l2.63-2.8c.5.47,49.69,47.43,52.72,114.82,2.68,59.8-8.37,108.54-33.78,149.01-21.48,34.2-48.62,55.22-70.43,72.11-19.04,14.75-32.8,25.4-33.19,37.62-.25,7.96,5.18,16.55,17.09,27.04,50.49,44.47,66.51,80.08,71.06,102.13,5.01,24.26-2.16,37.77-2.47,38.33Z"/>
      </g>
      <g class="cls-111">
        <path class="cls-24" d="M1233.33,543.13l-3.34-1.81c.06-.12,6.64-12.81,1.48-35.54-4.8-21.15-20.97-55.5-70.82-99.07-12.89-11.26-18.76-20.77-18.48-29.91.42-13.92,14.73-24.96,34.52-40.24,43.53-33.61,109.31-84.4,102.72-219.46-3.18-65.15-49.27-111.78-49.74-112.25l2.68-2.69c.48.47,47.6,48.1,50.85,114.75,2.95,60.37-8.01,109.53-33.5,150.27-21.53,34.42-48.79,55.47-70.7,72.38-18.97,14.64-32.67,25.23-33.04,37.35-.24,7.92,5.22,16.48,17.18,26.94,50.86,44.46,67.29,79.74,72.12,101.52,5.32,23.98-1.64,37.21-1.94,37.76Z"/>
      </g>
      <g class="cls-75">
        <path class="cls-11" d="M1250.62,543.09l-3.31-1.78c.06-.12,6.42-12.52.97-34.97-5.07-20.89-21.66-54.94-71.88-98.52-12.93-11.22-18.83-20.68-18.56-29.78.41-13.81,14.65-24.77,34.36-39.95,43.77-33.69,109.92-84.61,102.72-221-3.4-64.52-47.52-111.84-47.96-112.31l2.73-2.58c.46.48,45.51,48.76,48.99,114.69,3.22,60.95-7.65,110.51-33.21,151.53-21.59,34.64-48.97,55.71-70.97,72.65-18.89,14.54-32.55,25.05-32.9,37.08-.23,7.88,5.26,16.4,17.27,26.83,51.23,44.45,68.07,79.41,73.18,100.91,5.63,23.7-1.13,36.66-1.42,37.2Z"/>
      </g>
      <g class="cls-86">
        <path class="cls-11" d="M1267.91,543.06l-3.28-1.75c.06-.11,6.2-12.23.46-34.4-5.35-20.64-22.35-54.39-72.95-97.96-12.98-11.18-18.91-20.59-18.65-29.64.39-13.7,14.58-24.58,34.21-39.65,44.01-33.77,110.53-84.81,102.71-222.54-3.63-63.93-45.76-111.89-46.19-112.37l2.77-2.47c.43.49,43.42,49.42,47.12,114.63,3.49,61.53-7.27,111.5-32.91,152.78-21.64,34.85-49.15,55.96-71.25,72.92-18.82,14.45-32.42,24.88-32.76,36.81-.22,7.84,5.3,16.33,17.36,26.72,51.6,44.43,68.85,79.07,74.24,100.3,5.94,23.41-.61,36.1-.89,36.63Z"/>
      </g>
      <g class="cls-1">
        <path class="cls-32" d="M1285.2,543.02l-3.24-1.71c.06-.11,5.99-11.94-.06-33.84-5.63-20.39-23.03-53.83-74.01-97.41-13.02-11.13-18.98-20.51-18.73-29.5.37-13.59,14.5-24.4,34.07-39.36,44.26-33.85,111.15-85.01,102.69-224.09-3.84-63.25-44-111.95-44.41-112.44l2.81-2.35c.41.49,41.34,50.08,45.26,114.57,3.77,62.1-6.89,112.49-32.6,154.04-21.7,35.07-49.33,56.2-71.53,73.18-18.76,14.35-32.31,24.71-32.63,36.55-.21,7.8,5.33,16.26,17.45,26.62,51.97,44.42,69.63,78.73,75.29,99.69,6.25,23.13-.09,35.54-.37,36.06Z"/>
      </g>
      <g class="cls-124">
        <path class="cls-36" d="M1302.49,542.99l-3.21-1.68c.05-.11,5.77-11.66-.57-33.28-5.9-20.13-23.72-53.28-75.08-96.86-13.07-11.09-19.05-20.42-18.81-29.36.35-13.48,14.43-24.21,33.92-39.07,44.51-33.93,111.78-85.21,102.67-225.62-4.06-62.66-42.25-112.01-42.63-112.5l2.85-2.24c.39.5,39.26,50.73,43.4,114.5,4.06,62.68-6.49,113.48-32.28,155.3-21.75,35.28-49.51,56.44-71.81,73.44-18.69,14.25-32.19,24.54-32.5,36.29-.2,7.76,5.37,16.18,17.54,26.51,52.34,44.41,70.41,78.39,76.35,99.08,6.56,22.85.43,34.98.16,35.49Z"/>
      </g>
      <g class="cls-72">
        <path class="cls-36" d="M1319.78,542.95l-3.18-1.64c.05-.1,5.56-11.37-1.08-32.71-6.18-19.88-24.41-52.72-76.15-96.3-13.11-11.04-19.12-20.33-18.89-29.23.34-13.37,14.37-24.03,33.79-38.78,42.04-31.94,112.41-85.4,102.64-227.16-4.27-61.99-40.49-112.07-40.85-112.57l2.88-2.11c.37.51,37.19,51.38,41.54,114.43,4.36,63.26-6.09,114.47-31.95,156.56-21.81,35.5-50.88,57.58-72.1,73.7-18.63,14.15-32.08,24.37-32.38,36.03-.19,7.72,5.41,16.11,17.62,26.4,52.71,44.4,71.19,78.05,77.41,98.47,6.88,22.56.94,34.43.69,34.92Z"/>
      </g>
      <g class="cls-125">
        <path class="cls-50" d="M1337.07,542.92l-3.14-1.61c.05-.1,5.34-11.09-1.59-32.15-6.46-19.63-25.1-52.17-77.21-95.74-13.16-11-19.18-20.24-18.97-29.09.32-13.26,14.3-23.85,33.66-38.5,42.29-32.01,113.06-85.59,102.61-228.7-4.48-61.36-38.73-112.13-39.07-112.63l2.92-1.99c.35.51,35.12,52.03,39.68,114.37,4.66,63.84-5.67,115.46-31.61,157.81-21.86,35.71-51.07,57.82-72.39,73.96-18.56,14.05-31.98,24.21-32.26,35.77-.19,7.68,5.44,16.04,17.71,26.29,42.61,35.63,69.02,68.56,78.47,97.86,7.19,22.28,1.46,33.87,1.21,34.35Z"/>
      </g>
      <g class="cls-112">
        <path class="cls-50" d="M1354.36,542.88l-3.11-1.58c.05-.1,5.12-10.8-2.11-31.6-6.74-19.37-25.79-51.61-78.27-95.18-13.2-10.96-19.25-20.15-19.04-28.95.31-13.16,14.24-23.67,33.53-38.22,42.53-32.08,113.72-85.78,102.57-230.23-4.69-60.76-36.96-112.19-37.29-112.7l2.94-1.87c.33.52,33.06,52.68,37.82,114.3,4.98,64.42-5.25,116.45-31.26,159.07-21.92,35.92-51.26,58.05-72.69,74.21-18.5,13.96-31.88,24.04-32.14,35.52-.18,7.64,5.47,15.97,17.79,26.18,42.91,35.62,69.67,68.34,79.53,97.25,7.5,22,1.98,33.31,1.74,33.78Z"/>
      </g>
      <g class="cls-137">
        <path class="cls-9" d="M1371.65,542.85l-3.08-1.54c.05-.09,4.91-10.52-2.62-31.04-7.02-19.12-26.48-51.06-79.34-94.62-13.24-10.91-19.31-20.06-19.12-28.81.29-13.06,14.18-23.49,33.41-37.94,42.79-32.15,114.39-85.96,102.52-231.76-4.9-60.13-35.2-112.25-35.5-112.77l2.97-1.74c.31.53,31,53.33,35.97,114.23,5.29,65-4.81,117.44-30.89,160.33-21.98,36.13-51.46,58.29-72.99,74.46-18.45,13.86-31.78,23.88-32.03,35.26-.17,7.61,5.51,15.89,17.87,26.08,43.21,35.61,70.32,68.12,80.58,96.64,7.81,21.71,2.5,32.75,2.27,33.21Z"/>
      </g>
      <g class="cls-129">
        <path class="cls-9" d="M1388.94,542.81l-3.04-1.5c.04-.09,4.69-10.24-3.14-30.49-7.3-18.87-27.17-50.5-80.4-94.05-13.28-10.86-19.38-19.97-19.19-28.67.28-12.95,14.12-23.32,33.29-37.66,43.04-32.22,115.08-86.13,102.46-233.29-5.1-59.49-33.43-112.31-33.71-112.84l2.99-1.62c.29.53,28.95,53.97,34.11,114.16,5.62,65.58-4.36,118.43-30.52,161.58-22.03,36.34-51.66,58.52-73.3,74.71-18.4,13.77-31.69,23.72-31.93,35.02-.16,7.57,5.54,15.82,17.94,25.97,43.51,35.6,70.98,67.91,81.64,96.03,8.12,21.43,3.02,32.2,2.79,32.64Z"/>
      </g>
      <g class="cls-81">
        <path class="cls-37" d="M1406.23,542.77l-3.01-1.47c.04-.09,4.48-9.96-3.65-29.94-7.58-18.62-27.86-49.95-81.46-93.48-13.32-10.82-19.44-19.88-19.26-28.53.27-12.85,14.07-23.14,33.18-37.39,43.3-32.28,115.77-86.31,102.4-234.81-5.3-58.84-31.66-112.37-31.93-112.9l3-1.49c.27.54,26.91,54.61,32.26,114.1,13.54,150.37-59.87,205.1-103.74,237.8-18.34,13.68-31.6,23.56-31.83,34.77-.16,7.53,5.57,15.75,18.02,25.86,43.81,35.58,71.63,67.69,82.7,95.42,8.43,21.14,3.53,31.64,3.32,32.07Z"/>
      </g>
      <g class="cls-114">
        <path class="cls-38" d="M1423.52,542.74l-2.98-1.43c.04-.08,4.26-9.68-4.17-29.4-7.86-18.36-28.55-49.39-82.52-92.91-13.36-10.77-19.5-19.79-19.33-28.39.25-12.75,14.02-22.97,33.07-37.12,43.56-32.34,116.48-86.48,102.33-236.33-5.5-58.23-29.89-112.43-30.13-112.97l3.01-1.37c.25.55,24.87,55.25,30.42,114.03,14.32,151.71-59.53,206.54-103.65,239.3-18.3,13.58-31.51,23.4-31.74,34.53-.15,7.49,5.6,15.67,18.1,25.75,105.64,85.19,88.39,124.67,87.6,126.31Z"/>
      </g>
      <g class="cls-69">
        <path class="cls-38" d="M1440.81,542.7l-2.95-1.39c.04-.08,4.04-9.41-4.69-28.85-8.14-18.11-29.24-48.83-83.58-92.34-13.39-10.72-19.56-19.7-19.39-28.25.24-12.66,13.97-22.8,32.97-36.85,43.83-32.41,117.2-86.65,102.25-237.85-5.69-57.58-28.11-112.49-28.34-113.04l3.02-1.24c.23.55,22.83,55.89,28.57,113.96,15.13,153.05-59.17,207.98-103.56,240.8-18.25,13.49-31.44,23.24-31.65,34.29-.14,7.45,5.63,15.6,18.17,25.64,106.37,85.16,89.94,123.54,89.19,125.13Z"/>
      </g>
      <g class="cls-120">
        <path class="cls-30" d="M1458.1,542.66l-2.92-1.35c.03-.08,3.83-9.13-5.21-28.31-8.42-17.86-29.93-48.27-84.64-91.76-13.43-10.68-19.61-19.61-19.46-28.11.23-12.56,13.92-22.64,32.88-36.59,44.11-32.47,117.93-86.81,102.17-239.37-5.88-56.95-26.34-112.55-26.54-113.11l3.02-1.12c.21.56,20.8,56.53,26.73,113.89,15.95,154.39-58.8,209.41-103.46,242.29-18.21,13.4-31.36,23.09-31.57,34.06-.14,7.42,5.66,15.53,18.24,25.53,107.09,85.13,91.49,122.4,90.77,123.95Z"/>
      </g>
      <g class="cls-139">
        <path class="cls-30" d="M1475.39,542.63l-2.89-1.31c.03-.07,3.61-8.86-5.74-27.78-8.7-17.61-30.63-47.72-85.69-91.19-13.47-10.63-19.67-19.52-19.52-27.97.22-12.46,13.88-22.47,32.79-36.33,44.39-32.53,118.68-86.98,102.08-240.88-6.08-56.34-24.56-112.61-24.74-113.17l3.01-1c.19.56,18.77,57.16,24.89,113.83,16.8,155.72-58.42,210.85-103.36,243.78-18.17,13.32-31.29,22.94-31.49,33.83-.13,7.38,5.69,15.46,18.31,25.42,107.81,85.1,93.03,121.27,92.35,122.77Z"/>
      </g>
      <g class="cls-131">
        <path class="cls-55" d="M1492.68,542.59l-2.86-1.27c.03-.07,3.4-8.58-6.26-27.25-8.98-17.35-31.32-47.16-86.75-90.6-13.5-10.58-19.72-19.43-19.58-27.83.21-12.37,13.84-22.31,32.7-36.07,44.67-32.59,119.44-87.14,101.98-242.39-6.26-55.7-22.78-112.67-22.94-113.24l3-.88c.17.57,16.75,57.79,23.05,113.76,17.66,157.06-58.02,212.28-103.24,245.27-18.13,13.23-31.23,22.79-31.42,33.6-.13,7.34,5.71,15.38,18.38,25.31,108.53,85.07,94.58,120.13,93.94,121.58Z"/>
      </g>
      <g class="cls-100">
        <path class="cls-55" d="M1509.97,542.55l-2.82-1.23c.13-.31,12.08-33.71-94.59-116.74-13.53-10.54-19.77-19.33-19.63-27.68.2-12.28,13.8-22.15,32.62-35.82,44.96-32.65,120.22-87.29,101.87-243.9-6.45-55.08-20.99-112.72-21.14-113.3l2.99-.76c.15.58,14.74,58.42,21.21,113.7,18.55,158.4-57.61,213.71-103.12,246.75-18.1,13.14-31.17,22.64-31.35,33.38-.12,7.3,5.74,15.31,18.45,25.2,109.25,85.04,96.13,119,95.52,120.4Z"/>
      </g>
      <g class="cls-149">
        <path class="cls-26" d="M1527.26,542.51l-2.79-1.19c.12-.3,11.2-32.63-96.17-115.62-13.57-10.49-19.82-19.24-19.69-27.54.2-12.18,13.77-21.99,32.55-35.57,45.26-32.71,121.01-87.45,101.76-245.41-6.63-54.44-19.21-112.78-19.33-113.36l2.97-.64c.13.58,12.73,59.05,19.38,113.64,19.47,159.73-57.19,215.13-102.99,248.23-18.07,13.06-31.12,22.49-31.29,33.15-.12,7.27,5.76,15.24,18.51,25.09,109.97,85,97.68,117.86,97.1,119.21Z"/>
      </g>
      <g class="cls-168">
        <path class="cls-31" d="M1544.55,542.47l-2.76-1.14c.11-.28,10.32-31.56-97.75-114.51-13.6-10.44-19.87-19.14-19.74-27.4.19-12.09,13.74-21.84,32.49-35.32,45.56-32.76,121.81-87.6,101.63-246.91-6.82-53.82-17.42-112.83-17.52-113.42l2.94-.53c.11.59,10.72,59.68,17.55,113.58,20.41,161.07-56.75,216.56-102.85,249.71-18.04,12.97-31.08,22.35-31.24,32.94-.11,7.23,5.79,15.17,18.57,24.98,110.69,84.97,99.23,116.72,98.69,118.03Z"/>
      </g>
      <g class="cls-84">
        <path class="cls-31" d="M1561.85,542.43l-2.73-1.1c.1-.27,9.43-30.5-99.32-113.4-13.63-10.39-19.92-19.05-19.79-27.25.18-12.01,13.71-21.69,32.43-35.08,45.87-32.82,122.64-87.75,101.5-248.4-7-53.19-15.63-112.88-15.71-113.48l2.92-.42c.09.6,8.72,60.31,15.72,113.52,21.37,162.4-56.3,217.98-102.71,251.18-18.02,12.89-31.04,22.21-31.19,32.73-.11,7.19,5.81,15.09,18.63,24.87,111.41,84.93,100.78,115.58,100.27,116.84Z"/>
      </g>
      <g class="cls-162">
        <path class="cls-34" d="M1579.14,542.39l-2.7-1.05c.09-.26,8.54-29.44-100.9-112.29-13.66-10.34-19.96-18.95-19.84-27.11.17-11.92,13.68-21.54,32.37-34.84,46.18-32.88,123.48-87.91,101.36-249.9-7.18-52.57-13.83-112.93-13.9-113.54l2.88-.32c.07.6,6.72,60.94,13.89,113.46,22.36,163.73-55.83,219.39-102.55,252.65-18,12.81-31,22.07-31.15,32.52-.11,7.16,5.83,15.02,18.69,24.75,112.13,84.89,102.33,114.44,101.85,115.65Z"/>
      </g>
      <g class="cls-118">
        <path class="cls-34" d="M1596.43,542.34l-2.68-1c.08-.25,7.64-28.39-102.48-111.18-13.68-10.29-20-18.86-19.88-26.97.17-11.84,13.66-21.39,32.33-34.61,46.5-32.93,124.34-88.05,101.21-251.38-7.35-51.94-12.04-112.98-12.09-113.59l2.85-.22c.05.61,4.72,61.56,12.07,113.41,23.37,165.05-55.35,220.8-102.39,254.12-17.98,12.73-30.97,21.93-31.12,32.32-.1,7.12,5.85,14.95,18.75,24.64,112.85,84.85,103.88,113.3,103.44,114.47Z"/>
      </g>
      <g class="cls-102">
        <path class="cls-33" d="M1613.72,542.3l-2.65-.95c.07-.23,6.73-27.34-104.06-110.08-13.71-10.24-20.04-18.76-19.93-26.82.16-11.75,13.64-21.24,32.29-34.38,46.83-32.99,125.21-88.2,101.05-252.87-7.53-51.32-10.24-113.03-10.27-113.64l2.81-.12c.03.62,2.73,62.19,10.24,113.36,5.7,38.82,6.01,74.27.93,105.36-4.37,26.75-12.89,51.11-25.31,72.4-22.76,39.02-54.59,61.44-77.83,77.81-17.97,12.66-30.95,21.8-31.09,32.12-.1,7.08,5.88,14.88,18.8,24.53,113.57,84.81,105.42,112.15,105.02,113.28Z"/>
      </g>
      <g class="cls-165">
        <path class="cls-33" d="M1631.01,542.25l-2.62-.89c.06-.22,5.81-26.31-105.64-108.97-13.73-10.18-20.08-18.66-19.97-26.67.16-11.67,13.62-21.1,32.25-34.16,47.17-33.04,126.11-88.35,100.88-254.35-7.7-50.69-8.45-113.07-8.45-113.69l2.77-.03c0,.62.75,62.81,8.42,113.31,5.95,39.12,6.43,74.83,1.44,106.14-4.29,26.93-12.78,51.44-25.24,72.85-22.82,39.22-54.85,61.66-78.24,78.04-17.96,12.58-30.94,21.67-31.08,31.93-.09,7.05,5.89,14.81,18.85,24.42,114.29,84.77,106.97,111.01,106.61,112.08Z"/>
      </g>
      <g class="cls-146">
        <path class="cls-63" d="M1648.3,542.21l-2.59-.84c.05-.2,4.89-25.28-107.21-107.86-13.75-10.13-20.11-18.56-20.01-26.53.15-11.59,13.61-20.97,32.23-33.94,47.51-33.1,127.03-88.5,100.71-255.83-7.88-50.07-6.65-113.11-6.63-113.74l2.72.06c-.01.63-1.24,63.43,6.6,113.26,6.2,39.43,6.87,75.4,1.97,106.92-4.21,27.11-12.68,51.77-25.16,73.28-22.88,39.42-55.11,61.88-78.65,78.27-17.96,12.51-30.93,21.55-31.06,31.74-.09,7.01,5.91,14.74,18.9,24.3,115.01,84.72,108.52,109.86,108.19,110.89Z"/>
      </g>
      <g class="cls-91">
        <path class="cls-63" d="M1665.6,542.16l-2.56-.78c.04-.19,3.95-24.27-108.79-106.76-13.78-10.08-20.14-18.46-20.04-26.38.15-11.52,13.6-20.83,32.21-33.73,47.86-33.16,127.96-88.65,100.52-257.3-8.05-49.45-4.85-113.15-4.81-113.78l2.67.14c-.03.63-3.22,64.05,4.78,113.22,6.47,39.73,7.31,75.97,2.52,107.7-4.12,27.29-12.56,52.1-25.08,73.72-22.94,39.62-55.38,62.09-79.07,78.5-17.95,12.44-30.93,21.42-31.06,31.56-.09,6.98,5.93,14.66,18.95,24.19,115.73,84.68,110.07,108.72,109.77,109.7Z"/>
      </g>
      <g class="cls-78">
        <path class="cls-5" d="M1682.89,542.11l-2.53-.71c.03-.17,3-23.26-110.37-105.66-13.79-10.03-20.17-18.36-20.07-26.24.14-11.44,13.59-20.7,32.2-33.52,48.22-33.21,128.92-88.79,100.32-258.76-8.22-48.83-3.04-113.18-2.99-113.83l2.62.22c-.05.64-5.2,64.67,2.96,113.17,6.74,40.03,7.77,76.53,3.08,108.48-4.04,27.47-12.45,52.42-25,74.16-23,39.82-55.65,62.31-79.49,78.73-17.96,12.37-30.93,21.3-31.06,31.38-.09,6.94,5.95,14.59,18.99,24.07,116.44,84.63,111.62,107.57,111.36,108.5Z"/>
      </g>
      <g class="cls-144">
        <path class="cls-25" d="M1700.18,542.05l-2.51-.64c.02-.15,2.04-22.27-111.95-104.56-13.81-9.97-20.2-18.26-20.1-26.09.14-11.37,13.59-20.57,32.2-33.31,48.58-33.27,129.9-88.95,100.11-260.23-8.38-48.21-1.24-113.21-1.17-113.87l2.57.29c-.07.65-7.17,65.29,1.15,113.13,7.01,40.33,8.24,77.09,3.65,109.25-3.95,27.65-12.33,52.74-24.92,74.59-23.05,40.01-55.93,62.53-79.93,78.96-17.96,12.3-30.95,21.19-31.07,31.21-.09,6.91,5.96,14.52,19.03,23.96,117.16,84.58,113.17,106.41,112.94,107.3Z"/>
      </g>
      <g class="cls-133">
        <path class="cls-25" d="M1717.47,542l-2.48-.56c.08-.76,1.08-21.28-113.53-103.47-13.83-9.92-20.23-18.16-20.13-25.94.14-11.3,13.59-20.45,32.2-33.12,48.96-33.32,130.9-89.1,99.89-261.68-8.55-47.59.56-113.25.65-113.9l2.52.36c-.09.65-9.15,65.91-.67,113.1,7.3,40.63,8.73,77.65,4.25,110.02-3.85,27.82-12.21,53.07-24.83,75.02-23.11,40.21-56.21,62.74-80.38,79.19-17.98,12.24-30.97,21.08-31.09,31.05-.08,6.88,5.98,14.45,19.07,23.84,117.87,84.53,114.72,105.26,114.53,106.1Z"/>
      </g>
      <g class="cls-73">
        <path class="cls-57" d="M1734.77,541.94l-2.45-.48c.05-.72.1-20.3-115.11-102.38-13.84-9.86-20.25-18.06-20.16-25.79.14-11.23,13.59-20.33,32.21-32.93,49.34-33.38,131.92-89.25,99.67-263.13-8.71-46.98,2.37-113.27,2.48-113.94l2.46.42c-.11.66-11.12,66.53-2.49,113.06,7.59,40.93,9.23,78.2,4.86,110.78-3.76,28-12.08,53.39-24.73,75.45-23.17,40.41-56.5,62.96-80.84,79.42-17.99,12.17-31,20.97-31.12,30.89-.08,6.84,5.99,14.38,19.11,23.73,61.71,43.96,89.93,69.87,102.74,83.86,13.72,14.99,13.55,20.15,13.37,21.03Z"/>
      </g>
      <g class="cls-70">
        <path class="cls-57" d="M1752.06,541.88l-2.42-.39c0-.67-.87-19.33-116.69-101.29-13.86-9.81-20.27-17.95-20.18-25.64.13-11.16,13.6-20.21,32.24-32.74,49.73-33.44,132.97-89.4,99.42-264.58-8.88-46.37,4.17-113.3,4.3-113.97l2.4.48c-.13.67-13.09,67.14-4.3,113.03,7.89,41.23,9.74,78.75,5.48,111.54-3.66,28.17-11.95,53.7-24.63,75.88-23.23,40.6-56.8,63.17-81.31,79.65-18.02,12.11-31.03,20.87-31.15,30.74-.08,6.81,6,14.31,19.14,23.61,117.28,83,117.99,101.81,117.69,103.68Z"/>
      </g>
      <g class="cls-116">
        <path class="cls-48" d="M1769.35,541.81l-2.39-.29c-.03-.62-1.85-18.36-118.27-100.21-13.87-9.75-20.29-17.85-20.2-25.49.13-11.09,13.61-20.1,32.27-32.57,50.13-33.5,134.04-89.56,99.17-266.02-9.04-45.75,5.97-113.32,6.13-114l2.35.53c-.15.67-15.06,67.75-6.11,113,8.2,41.52,10.27,79.3,6.13,112.29-3.55,28.35-11.81,54.02-24.53,76.3-23.29,40.79-57.11,63.39-81.8,79.89-18.04,12.06-31.08,20.77-31.2,30.59-.08,6.78,6.01,14.24,19.17,23.5,117.98,82.94,119.49,100.71,119.27,102.47Z"/>
      </g>
      <g class="cls-167">
        <path class="cls-48" d="M1786.64,541.74l-2.35-.18,1.18.09-1.18.02c-.06-.68-2.81-17.5-119.85-99.24-13.88-9.69-20.3-17.75-20.21-25.34.13-11.03,13.63-19.99,32.31-32.39,50.54-33.56,135.13-89.72,98.91-267.45-9.2-45.15,7.78-113.34,7.95-114.02l2.29.58c-.17.68-17.02,68.36-7.93,112.98,8.52,41.81,10.81,79.84,6.79,113.04-3.45,28.52-11.66,54.33-24.42,76.73-23.35,40.99-57.42,63.61-82.29,80.12-18.08,12-31.14,20.67-31.25,30.46-.08,6.74,6.02,14.17,19.2,23.38,118.67,82.88,120.98,99.61,120.85,101.25Z"/>
      </g>
      <g class="cls-122">
        <path class="cls-4" d="M1801.61,541.71c-.1-.64-3.76-16.52-121.44-98.18-13.89-9.63-20.31-17.64-20.22-25.19.13-10.97,13.65-19.89,32.36-32.23,50.96-33.62,136.26-89.89,98.63-268.88-9.36-44.54,9.59-113.36,9.78-114.05l2.23.62c-.19.68-18.99,68.97-9.74,112.95,8.85,42.1,11.37,80.38,7.48,113.78-3.34,28.69-11.52,54.65-24.31,77.15-23.41,41.18-57.73,63.82-82.8,80.36-18.11,11.95-31.2,20.58-31.31,30.33-.08,6.71,6.03,14.1,19.23,23.26,119.36,82.82,122.47,98.5,122.43,100.02l-2.31-.06,1.16.03-1.15.09Z"/>
      </g>
      <g class="cls-119">
        <path class="cls-46" d="M1818.95,541.77c-.13-.6-4.67-15.53-123.04-97.12-13.89-9.58-20.32-17.53-20.23-25.04.13-10.91,13.67-19.79,32.41-32.08,51.39-33.68,137.41-90.06,98.34-270.3-9.52-43.94,11.39-113.38,11.6-114.07l2.17.66c-.21.69-20.96,69.57-11.56,112.93,9.19,42.38,11.94,80.91,8.19,114.52-3.23,28.86-11.36,54.96-24.19,77.56-23.47,41.37-58.06,64.04-83.31,80.59-18.16,11.9-31.28,20.5-31.39,30.2-.08,6.68,6.04,14.04,19.25,23.14,120.05,82.75,123.95,97.39,124,98.79l-1.13.04-1.12.16Z"/>
      </g>
      <g class="cls-93">
        <path class="cls-46" d="M1836.3,541.83c-.17-.55-5.54-14.5-124.64-96.07-13.9-9.52-20.33-17.43-20.24-24.89.13-10.86,13.7-19.7,32.48-31.93,51.83-33.75,138.58-90.24,98.04-271.71-9.68-43.33,13.2-113.39,13.43-114.09l2.11.7c-.23.7-22.92,70.18-13.37,112.91,9.53,42.67,12.53,81.44,8.91,115.25-3.11,29.03-11.2,55.26-24.06,77.98-23.53,41.56-58.39,64.26-83.85,80.83-18.21,11.85-31.36,20.42-31.47,30.09-.08,6.65,6.05,13.97,19.27,23.03,120.73,82.69,125.43,96.26,125.57,97.54l-1.11.12-1.08.24Z"/>
      </g>
      <g class="cls-128">
        <path class="cls-61" d="M1853.64,541.88c-.2-.52-6.22-13.63-126.24-95-13.88-9.48-20.3-17.36-20.21-24.79.14-10.83,13.75-19.63,32.59-31.82,52.26-33.8,139.72-90.36,97.66-273.03-9.84-42.74,15-113.4,15.26-114.11l2.05.73c-.25.7-24.88,70.78-15.19,112.89,9.89,42.94,13.14,81.95,9.67,115.94-2.98,29.19-11.03,55.55-23.91,78.36-23.58,41.74-58.71,64.46-84.36,81.04-18.27,11.82-31.48,20.36-31.6,30.02-.08,6.63,6.04,13.93,19.26,22.96,121.56,82.41,126.92,95.12,127.13,96.3l-1.07.19-1.04.31Z"/>
      </g>
      <g class="cls-132">
        <path class="cls-61" d="M1871,541.96c-.23-.47-7-12.47-127.87-93.96-13.89-9.41-20.31-17.24-20.22-24.62.13-10.77,13.78-19.54,32.68-31.68,52.72-33.87,140.97-90.56,97.34-274.44-10-42.14,16.81-113.41,17.08-114.13l2,.76c-.27.71-26.85,71.37-17,112.87,10.25,43.22,13.76,82.47,10.43,116.66-2.86,29.35-10.86,55.86-23.78,78.77-23.64,41.93-59.06,64.68-84.92,81.3-18.33,11.78-31.58,20.29-31.7,29.91-.08,6.6,6.05,13.85,19.28,22.83,122.2,82.39,128.38,93.98,128.68,95.03l-2.05.59,1.03-.29-.99.4Z"/>
      </g>
      <g class="cls-108">
        <path class="cls-45" d="M1888.34,541.94c-.21-.33-7.63-11.16-129.46-92.84-13.89-9.35-20.32-17.12-20.23-24.46.13-10.72,13.82-19.46,32.77-31.55,53.2-33.95,142.25-90.77,97.02-275.85-10.15-41.55,18.62-113.42,18.91-114.14l1.94.78c-.29.71-28.81,71.97-18.81,112.86,10.63,43.49,14.41,82.98,11.22,117.37-2.73,29.52-10.69,56.16-23.64,79.19-23.71,42.12-59.43,64.91-85.5,81.56-18.4,11.74-31.69,20.22-31.81,29.81-.08,6.57,6.05,13.78,19.3,22.7,124.95,83.77,130.06,93.39,130.22,93.76l-1.92.82Z"/>
      </g>
      <g class="cls-99">
        <path class="cls-45" d="M1905.73,542.05c-.24-.31-8.19-9.86-131.11-91.83-13.89-9.28-20.32-17-20.23-24.29.13-10.67,13.86-19.38,32.88-31.43,53.7-34.03,143.57-91,96.68-277.25-10.31-40.96,20.42-113.43,20.73-114.15l1.88.81c-.31.72-30.77,72.56-20.63,112.85,11.02,43.76,15.07,83.49,12.04,118.07-2.6,29.68-10.51,56.46-23.5,79.59-23.77,42.32-59.8,65.15-86.1,81.82-18.47,11.71-31.81,20.16-31.93,29.72-.08,6.54,6.06,13.71,19.32,22.57,125.59,83.74,131.53,92.15,131.73,92.47l-1.75,1.06Z"/>
      </g>
      <g class="cls-105">
        <path class="cls-10" d="M1923.15,542.15c-.27-.28-8.57-8.44-132.79-90.81-13.89-9.21-20.32-16.88-20.23-24.12.13-10.62,13.91-19.3,32.99-31.31,54.2-34.12,144.91-91.23,96.32-278.64-10.47-40.38,21.2-111.17,22.56-114.16l1.82.82c-.33.73-32.73,73.14-22.44,112.84,11.42,44.03,15.75,83.98,12.88,118.76-2.46,29.84-10.32,56.76-23.36,80-23.84,42.51-60.18,65.38-86.71,82.09-18.55,11.67-31.95,20.11-32.06,29.64-.08,6.51,6.07,13.64,19.33,22.44,126.23,83.71,132.98,90.92,133.21,91.19l-1.53,1.29Z"/>
      </g>
    </g>
  </g>
</svg>