<?xml version="1.0" standalone="no"?>
<!DOCTYPE svg PUBLIC "-//W3C//DTD SVG 20010904//EN"
 "http://www.w3.org/TR/2001/REC-SVG-20010904/DTD/svg10.dtd">
<svg version="1.0" xmlns="http://www.w3.org/2000/svg"
 width="800.000000pt" height="800.000000pt" viewBox="0 0 800.000000 800.000000"
 preserveAspectRatio="xMidYMid meet">
<metadata>
Created by potrace 1.14, written by Peter Selinger 2001-2017
</metadata>
<g transform="translate(0.000000,800.000000) scale(0.100000,-0.100000)"
fill="#000000" stroke="none">
<path d="M3706 7842 c-3 -3 -29 -6 -58 -8 -53 -3 -215 -23 -253 -30 -11 -2
-38 -7 -60 -10 -66 -10 -129 -22 -155 -29 -8 -2 -29 -7 -46 -9 -149 -26 -527
-147 -692 -222 -29 -13 -55 -24 -58 -24 -7 0 -256 -124 -334 -167 -117 -64
-379 -234 -413 -267 -8 -9 -20 -16 -25 -16 -6 0 -12 -3 -14 -7 -1 -5 -32 -30
-68 -58 -36 -27 -67 -52 -70 -55 -3 -3 -21 -18 -40 -34 -34 -27 -212 -189
-234 -212 -125 -131 -161 -170 -211 -229 -33 -38 -63 -72 -66 -75 -3 -3 -49
-63 -102 -135 -53 -71 -104 -138 -112 -147 -8 -10 -15 -20 -15 -22 0 -3 -18
-32 -40 -65 -22 -33 -40 -64 -40 -70 0 -5 -3 -11 -8 -13 -18 -8 -195 -337
-246 -458 -10 -25 -29 -67 -41 -95 -12 -27 -26 -61 -30 -75 -4 -14 -13 -38
-21 -55 -12 -29 -82 -233 -90 -265 -2 -8 -15 -58 -29 -110 -14 -52 -27 -104
-29 -115 -2 -11 -7 -27 -10 -35 -3 -8 -8 -32 -11 -54 -3 -21 -7 -41 -9 -45 -2
-3 -7 -28 -10 -55 -4 -27 -9 -52 -11 -55 -1 -3 -6 -33 -9 -66 -4 -33 -9 -69
-11 -80 -6 -28 -14 -96 -22 -200 -9 -100 -9 -569 0 -655 6 -64 19 -178 22
-200 1 -8 5 -37 9 -65 4 -27 11 -70 16 -95 5 -25 11 -58 14 -75 5 -39 41 -195
61 -265 8 -30 20 -75 27 -100 6 -24 29 -94 50 -155 21 -60 40 -114 42 -120 2
-5 9 -23 15 -40 7 -16 19 -46 26 -65 68 -186 320 -647 432 -790 6 -8 40 -54
76 -101 35 -48 69 -93 76 -100 6 -8 19 -24 29 -35 73 -92 127 -150 272 -294
91 -91 188 -183 215 -205 26 -22 56 -47 64 -55 40 -37 256 -194 356 -258 61
-39 115 -75 121 -79 46 -35 363 -198 418 -215 17 -5 47 -12 66 -14 19 -2 40
-6 46 -8 24 -9 162 24 213 50 29 15 77 50 105 78 46 47 62 71 107 171 11 23
14 104 16 360 2 401 -4 447 -87 618 -18 37 -37 67 -42 67 -4 0 -8 6 -8 14 0 8
-35 49 -79 92 -82 82 -84 84 -141 124 -19 13 -40 29 -47 35 -6 5 -26 21 -44
35 -18 14 -37 30 -43 35 -6 6 -43 37 -81 70 -125 107 -151 132 -250 239 -30
32 -147 182 -162 207 -10 16 -21 29 -25 29 -4 0 -8 6 -8 13 0 7 -8 22 -18 33
-10 10 -21 26 -25 34 -4 8 -18 33 -32 55 -48 78 -143 271 -183 375 -51 135
-55 143 -57 155 -2 6 -12 42 -23 80 -12 39 -23 81 -26 95 -3 14 -12 57 -20 95
-8 39 -17 88 -20 110 -3 22 -8 51 -10 65 -18 93 -24 401 -11 545 4 50 9 104
11 120 1 17 3 30 4 30 1 0 3 11 5 25 2 14 6 39 9 55 4 17 9 46 12 65 8 46 12
65 14 65 1 0 4 11 6 25 7 37 43 159 60 205 9 22 16 42 16 45 2 27 98 246 138
314 22 37 40 72 40 77 0 5 3 9 8 9 4 0 16 17 27 37 11 20 25 41 30 47 6 6 26
34 45 61 18 28 36 52 40 55 3 3 23 30 45 60 22 30 44 60 50 66 5 6 21 26 35
44 71 95 172 212 224 259 58 54 57 53 111 96 28 22 52 43 53 47 2 5 9 8 17 8
7 0 18 7 25 15 16 19 176 125 265 175 46 26 178 94 185 95 3 0 28 11 55 24 28
12 55 24 60 25 6 2 24 9 40 16 45 18 251 82 315 97 50 11 225 43 265 48 221
27 566 22 719 -10 14 -3 38 -7 54 -10 58 -11 98 -18 112 -22 8 -2 24 -5 35 -8
11 -2 45 -11 75 -20 30 -9 60 -17 65 -18 6 -2 16 -6 23 -10 6 -5 12 -6 12 -3
0 3 30 -6 68 -21 37 -14 72 -26 77 -28 47 -12 402 -186 415 -203 3 -4 17 -13
32 -21 15 -8 37 -22 47 -33 11 -10 24 -18 29 -18 4 0 17 -8 28 -18 10 -9 31
-25 46 -34 72 -47 276 -232 383 -349 61 -66 145 -175 206 -264 30 -44 56 -82
59 -85 15 -15 176 -332 200 -395 42 -109 88 -245 95 -280 2 -11 9 -38 14 -60
15 -54 40 -181 46 -230 3 -22 7 -51 10 -65 10 -50 18 -198 19 -320 0 -158 -13
-306 -38 -445 -2 -11 -7 -38 -11 -60 -3 -22 -9 -49 -12 -60 -4 -11 -8 -24 -9
-30 -1 -5 -5 -21 -7 -35 -8 -34 -42 -149 -55 -180 -5 -14 -11 -29 -12 -35 -5
-20 -12 -40 -20 -60 -5 -11 -21 -49 -36 -85 -33 -81 -127 -267 -160 -315 -13
-20 -24 -38 -24 -40 0 -4 -36 -60 -68 -104 -59 -84 -132 -176 -190 -240 -37
-41 -68 -78 -70 -83 -2 -4 -10 -8 -17 -8 -8 0 -18 -6 -22 -13 -22 -36 -297
-237 -417 -304 -184 -104 -427 -209 -560 -243 -190 -48 -375 38 -461 216 -20
41 -35 78 -32 81 3 3 2 16 -4 29 -5 15 -9 692 -9 1683 l0 1658 -24 84 c-41
151 -106 248 -240 363 -38 32 -133 79 -216 107 -93 31 -268 31 -360 0 -153
-52 -278 -161 -348 -303 -22 -46 -43 -96 -46 -113 -4 -16 -9 -43 -13 -60 -8
-40 -9 -4424 0 -4498 22 -188 139 -377 300 -484 40 -26 74 -48 77 -49 3 0 22
-8 43 -17 112 -49 226 -61 562 -61 132 0 279 3 326 7 83 6 104 9 194 22 22 3
58 8 80 11 46 6 60 9 135 24 30 6 68 13 83 16 16 2 81 18 145 35 65 17 125 32
135 34 10 2 73 23 140 45 234 80 496 197 690 309 125 72 130 75 141 84 6 4 49
33 96 63 103 68 170 116 230 165 94 77 179 102 290 85 37 -5 110 -37 110 -47
0 -5 5 -9 10 -9 6 0 104 -93 218 -207 l208 -208 147 2 c175 2 205 5 280 33
133 50 235 162 278 304 17 56 19 97 16 481 -2 418 -2 420 -25 468 -29 58 -78
109 -130 136 -49 25 -79 31 -159 32 -77 1 -98 18 -83 68 5 18 13 38 18 44 5 7
19 37 32 67 12 30 30 71 38 90 9 19 16 37 17 40 2 8 16 42 25 65 11 26 23 59
24 65 1 3 10 28 20 55 28 76 29 79 31 90 2 6 10 33 20 61 9 28 18 60 20 70 2
10 4 19 5 19 4 0 68 265 76 314 3 18 8 43 10 55 2 11 6 35 9 51 3 17 7 44 10
60 3 17 8 53 10 80 3 28 7 60 10 73 19 98 28 617 13 767 -14 135 -16 161 -23
220 -4 33 -9 69 -11 80 -2 11 -9 47 -15 80 -5 33 -12 69 -14 80 -9 52 -48 215
-66 279 -11 39 -27 95 -35 125 -8 30 -20 61 -26 68 -6 7 -8 13 -5 13 5 0 -19
75 -44 135 -7 17 -13 32 -13 35 -9 46 -181 419 -218 472 -10 14 -18 33 -18 42
0 9 -4 16 -9 16 -5 0 -13 10 -17 23 -4 12 -10 24 -13 27 -4 3 -20 28 -35 55
-41 71 -132 208 -191 286 -27 37 -57 77 -65 89 -8 12 -19 28 -25 34 -5 6 -46
54 -90 106 -44 52 -89 104 -100 116 -170 179 -327 326 -451 424 -10 8 -39 31
-64 50 -25 19 -46 38 -48 42 -2 5 -9 8 -15 8 -6 0 -20 8 -31 19 -30 27 -233
161 -245 161 -5 0 -11 3 -13 8 -10 24 -482 269 -523 271 -3 0 -20 8 -37 17
-48 25 -311 119 -388 139 -8 3 -58 16 -110 30 -52 15 -108 29 -125 31 -16 3
-43 9 -60 14 -16 5 -59 14 -95 20 -36 6 -76 13 -90 16 -29 5 -94 14 -130 19
-74 9 -151 18 -195 22 -68 7 -623 11 -629 5z"/>
</g>
</svg>
